<?xml version="1.0" standalone="no"?><!DOCTYPE svg PUBLIC "-//W3C//DTD SVG 1.1//EN" "http://www.w3.org/Graphics/SVG/1.1/DTD/svg11.dtd"><svg t="1575101190004" class="icon" viewBox="0 0 1024 1024" version="1.1" xmlns="http://www.w3.org/2000/svg" p-id="3253" xmlns:xlink="http://www.w3.org/1999/xlink" width="200" height="200"><defs><style type="text/css"></style></defs><path d="M392.192 586.752H93.184a36.864 36.864 0 0 0-36.864 36.864v299.008a36.864 36.864 0 0 0 36.864 36.864h299.008a36.864 36.864 0 0 0 36.864-36.864V623.616a36.864 36.864 0 0 0-36.864-36.864z m6.144 335.872a6.144 6.144 0 0 1-6.144 6.144H93.184a6.144 6.144 0 0 1-6.144-6.144V623.616a6.144 6.144 0 0 1 6.144-6.144h299.008a6.144 6.144 0 0 1 6.144 6.144zM392.192 155.648H93.184a36.864 36.864 0 0 0-36.864 36.864V491.52a36.864 36.864 0 0 0 36.864 36.864h299.008a36.864 36.864 0 0 0 36.864-36.864V192.512a36.864 36.864 0 0 0-36.864-36.864z m6.144 335.872a6.144 6.144 0 0 1-6.144 6.144H93.184a6.144 6.144 0 0 1-6.144-6.144V192.512a6.144 6.144 0 0 1 6.144-6.144h299.008a6.144 6.144 0 0 1 6.144 6.144zM838.656 586.752H539.648a36.864 36.864 0 0 0-36.864 36.864v299.008a36.864 36.864 0 0 0 36.864 36.864h299.008a36.864 36.864 0 0 0 36.864-36.864V623.616a36.864 36.864 0 0 0-36.864-36.864z m6.144 335.872a6.144 6.144 0 0 1-6.144 6.144H539.648a6.144 6.144 0 0 1-6.144-6.144V623.616a6.144 6.144 0 0 1 6.144-6.144h299.008a6.144 6.144 0 0 1 6.144 6.144zM956.416 286.72L745.472 74.752a36.864 36.864 0 0 0-52.224 0L482.304 286.72a36.864 36.864 0 0 0 0 52.224l210.944 210.944a36.864 36.864 0 0 0 52.224 0l210.944-210.944a36.864 36.864 0 0 0 0-52.224z m-21.504 29.696L723.968 528.384a6.144 6.144 0 0 1-8.192 0L503.808 316.416a6.144 6.144 0 0 1 0-8.192L714.752 97.28l4.096-2.048 4.096 2.048 211.968 210.944a6.144 6.144 0 0 1 0 8.192z" p-id="3254"></path></svg>