<?xml version="1.0" standalone="no"?><!DOCTYPE svg PUBLIC "-//W3C//DTD SVG 1.1//EN" "http://www.w3.org/Graphics/SVG/1.1/DTD/svg11.dtd"><svg t="1575102166449" class="icon" viewBox="0 0 1024 1024" version="1.1" xmlns="http://www.w3.org/2000/svg" p-id="7664" xmlns:xlink="http://www.w3.org/1999/xlink" width="200" height="200"><defs><style type="text/css"></style></defs><path d="M717.824 181.248L512 62.464 307.2 181.248v236.544l204.8 118.784 204.8-118.784z m-30.72 219.136L512 500.736l-174.08-100.352V198.656l174.08-100.352 174.08 100.352zM63.488 593.92v236.544l204.8 118.784 204.8-118.784V593.92l-204.8-118.784z m378.88 219.136l-174.08 100.352-174.08-100.352V611.328l174.08-100.352 174.08 100.352zM749.568 473.088l-204.8 118.784v236.544l204.8 118.784 204.8-118.784V591.872z m174.08 337.92l-174.08 100.352-174.08-100.352V609.28l174.08-100.352 174.08 100.352z" p-id="7665"></path></svg>