<?xml version="1.0" standalone="no"?><!DOCTYPE svg PUBLIC "-//W3C//DTD SVG 1.1//EN" "http://www.w3.org/Graphics/SVG/1.1/DTD/svg11.dtd"><svg t="1575101348638" class="icon" viewBox="0 0 1024 1024" version="1.1" xmlns="http://www.w3.org/2000/svg" p-id="4045" xmlns:xlink="http://www.w3.org/1999/xlink" width="200" height="200"><defs><style type="text/css"></style></defs><path d="M875.52 266.24l17.408-11.264-12.288-17.408-16.384 12.288zM896 300.032l18.432-10.24-10.24-18.432-17.408 10.24zM242.688 165.888l-12.288-16.384-16.384 14.336 13.312 15.36zM927.744 372.736l19.456-6.144-7.168-19.456-19.456 7.168zM839.68 190.464l-15.36-14.336-14.336 15.36 14.336 13.312zM850.944 234.496l15.36-13.312-13.312-15.36-15.36 13.312zM913.408 335.872L931.84 327.68l-9.216-18.432-18.432 9.216zM275.456 143.36l-11.264-17.408-17.408 11.264 12.288 16.384zM939.008 411.648l19.456-5.12-5.12-20.48-19.456 5.12zM211.968 192.512l-14.336-15.36-15.36 14.336 14.336 14.336zM946.176 450.56l20.48-3.072-3.072-20.48-20.48 4.096zM583.68 58.368l-20.48-3.072-2.048 20.48 19.456 3.072zM950.272 490.496h20.48q-1.024-10.24-1.024-20.48l-20.48 2.048q0 8.192 1.024 18.432zM421.888 82.944l-4.096-20.48-20.48 5.12 5.12 19.456zM382.976 93.184l-6.144-19.456-19.456 6.144 7.168 19.456zM345.088 106.496L337.92 87.04l-19.456 8.192 8.192 18.432zM808.96 161.792l-16.384-13.312-12.288 16.384 15.36 12.288zM541.696 54.272h-20.48v20.48h19.456zM500.736 73.728v-20.48h-20.48v20.48zM460.8 76.8l-2.048-20.48-20.48 3.072 3.072 20.48zM740.352 113.664l-18.432-10.24-9.216 18.432 17.408 9.216zM703.488 95.232l-19.456-8.192-8.192 18.432 18.432 8.192zM775.168 136.192L757.76 124.928l-10.24 17.408 16.384 11.264zM664.576 78.848L645.12 72.704 638.976 92.16l19.456 6.144zM309.248 122.88l-9.216-18.432-18.432 10.24 10.24 17.408zM624.64 66.56L604.16 61.44l-4.096 20.48 19.456 4.096zM75.776 552.96l-20.48 2.048 2.048 20.48 20.48-3.072q-1.024-10.24-2.048-19.456zM620.544 936.96l5.12 19.456 20.48-6.144-6.144-19.456zM338.944 936.96l19.456 7.168 7.168-19.456-18.432-7.168zM542.72 949.248v20.48l20.48-2.048-2.048-20.48zM696.32 910.336l8.192 18.432 18.432-9.216-9.216-18.432zM659.456 924.672l7.168 19.456 19.456-7.168-8.192-19.456zM731.136 891.904l10.24 17.408 17.408-11.264L747.52 880.64zM502.784 950.272v20.48h20.48v-20.48zM418.816 961.536l20.48 4.096 3.072-20.48-19.456-3.072zM378.88 951.296l20.48 5.12 5.12-19.456-19.456-5.12zM460.8 967.68l20.48 2.048v-20.48l-19.456-2.048zM581.632 945.152l3.072 20.48 20.48-4.096-4.096-20.48zM897.024 722.944l18.432 10.24 9.216-18.432-18.432-9.216zM914.432 687.104l18.432 8.192 8.192-19.456-19.456-8.192zM928.768 649.216l19.456 6.144 6.144-20.48-19.456-5.12zM939.008 611.328l19.456 4.096 4.096-20.48-20.48-4.096zM764.928 870.4l12.288 16.384 16.384-12.288-12.288-16.384zM946.176 571.392l20.48 3.072 2.048-20.48-20.48-2.048q-1.024 10.24-2.048 19.456zM796.672 845.824l13.312 15.36 15.36-14.336-14.336-15.36zM825.344 818.176l14.336 14.336 14.336-15.36-15.36-13.312zM875.52 756.736l17.408 11.264 11.264-17.408-17.408-10.24zM851.968 788.48l15.36 13.312 13.312-16.384-16.384-12.288zM169.984 818.176l14.336 15.36 14.336-14.336-13.312-14.336zM89.088 394.24L69.632 389.12l-5.12 20.48 19.456 4.096zM80.896 433.152l-20.48-4.096-3.072 20.48 20.48 3.072zM73.728 513.024h-20.48v20.48h20.48v-20.48zM75.776 473.088l-20.48-2.048q-1.024 10.24-1.024 20.48h20.48q0-8.192 1.024-18.432zM301.056 919.552l18.432 9.216 8.192-18.432-17.408-9.216zM184.32 221.184l-15.36-13.312-13.312 16.384 15.36 11.264zM117.76 319.488l-18.432-9.216-9.216 19.456 18.432 8.192zM158.72 251.904l-16.384-12.288-12.288 17.408 17.408 11.264zM137.216 284.672l-17.408-10.24-10.24 18.432 18.432 10.24zM80.896 591.872l-20.48 4.096 4.096 20.48 19.456-5.12zM102.4 356.352l-19.456-7.168-7.168 19.456 19.456 6.144zM970.752 509.952h-20.48v21.504h20.48v-21.504zM198.656 847.872l16.384 13.312 13.312-15.36-15.36-13.312zM230.4 874.496l16.384 12.288 12.288-16.384-16.384-12.288zM265.216 899.072l17.408 11.264 10.24-17.408-17.408-10.24zM118.784 705.536l-18.432 9.216 9.216 18.432 18.432-10.24zM90.112 630.784l-19.456 5.12 6.144 20.48 19.456-6.144zM159.744 773.12L143.36 785.408l13.312 16.384 15.36-13.312zM102.4 668.672l-19.456 7.168 8.192 19.456 18.432-8.192zM137.216 740.352l-17.408 10.24 11.264 17.408 17.408-11.264zM512 848.896a334.848 334.848 0 0 0 44.032-666.624h-2.048l-41.984-2.048A334.848 334.848 0 1 0 512 849.92zM274.432 309.248a348.16 348.16 0 0 0 87.04 56.32 457.728 457.728 0 0 0-24.576 139.264H197.632a312.32 312.32 0 0 1 76.8-195.584zM501.76 200.704v175.104a322.56 322.56 0 0 1-113.664-22.528 471.04 471.04 0 0 1 96.256-151.552z m44.032 2.048a475.136 475.136 0 0 1 92.16 144.384A320.512 320.512 0 0 1 522.24 374.784v-174.08z m32.768 5.12A313.344 313.344 0 0 1 728.064 286.72a334.848 334.848 0 0 1-70.656 50.176 493.568 493.568 0 0 0-78.848-129.024z m-34.816 619.52H522.24v-174.08a325.632 325.632 0 0 1 115.712 27.648 446.464 446.464 0 0 1-94.208 146.432z m112.64-136.192a323.584 323.584 0 0 1 72.704 50.176 313.344 313.344 0 0 1-152.576 80.896 478.208 478.208 0 0 0 79.872-132.096z m-174.08 136.192a455.68 455.68 0 0 1-94.208-150.528A315.392 315.392 0 0 1 501.76 653.312v175.104z m19.456-194.56a336.896 336.896 0 0 0-121.856 24.576 445.44 445.44 0 0 1-23.552-132.096H501.76z m20.48 0V524.288h148.48A445.44 445.44 0 0 1 645.12 662.528a346.112 346.112 0 0 0-122.88-29.696z m0-129.024V395.264a340.992 340.992 0 0 0 122.88-29.696 434.176 434.176 0 0 1 25.6 138.24z m-20.48-107.52v107.52H356.352a434.176 434.176 0 0 1 23.552-131.072A345.088 345.088 0 0 0 501.76 396.288zM335.872 524.288A470.016 470.016 0 0 0 360.448 665.6a359.424 359.424 0 0 0-84.992 55.296 312.32 312.32 0 0 1-77.824-196.608z m-46.08 211.968a349.184 349.184 0 0 1 78.848-51.2 480.256 480.256 0 0 0 81.92 137.216 314.368 314.368 0 0 1-160.768-86.016z m453.632-9.216a333.824 333.824 0 0 0-78.848-55.296 468.992 468.992 0 0 0 27.648-146.432h134.144A313.344 313.344 0 0 1 743.424 727.04z m82.944-222.208H691.2a457.728 457.728 0 0 0-27.648-147.456 348.16 348.16 0 0 0 77.824-55.296 313.344 313.344 0 0 1 84.992 201.728zM452.608 205.824A492.544 492.544 0 0 0 368.64 345.088a336.896 336.896 0 0 1-79.872-51.2 313.344 313.344 0 0 1 163.84-88.064z" p-id="4046"></path></svg>