<?xml version="1.0" standalone="no"?><!DOCTYPE svg PUBLIC "-//W3C//DTD SVG 1.1//EN" "http://www.w3.org/Graphics/SVG/1.1/DTD/svg11.dtd"><svg t="1575101351925" class="icon" viewBox="0 0 1024 1024" version="1.1" xmlns="http://www.w3.org/2000/svg" p-id="4156" xmlns:xlink="http://www.w3.org/1999/xlink" width="200" height="200"><defs><style type="text/css"></style></defs><path d="M358.4 737.28H203.776V399.36H358.4z m-134.144-20.48H337.92V419.84H224.256zM588.8 737.28h-153.6V136.192h153.6z m-133.12-20.48h112.64V156.672h-112.64zM823.296 737.28H668.672V279.552h154.624z m-134.144-20.48h113.664V300.032H689.152z" p-id="4157"></path><path d="M527.36 966.656C399.36 966.656 122.88 763.904 122.88 691.2V188.416c0-71.68 68.608-131.072 153.6-131.072h471.04c84.992 0 153.6 58.368 153.6 131.072v502.784c0 74.752-251.904 275.456-373.76 275.456zM276.48 77.824c-73.728 0-133.12 49.152-133.12 110.592v502.784c0 55.296 260.096 256 384 256S880.64 751.616 880.64 691.2V188.416c0-60.416-59.392-110.592-133.12-110.592z" p-id="4158"></path></svg>