<?xml version="1.0" standalone="no"?><!DOCTYPE svg PUBLIC "-//W3C//DTD SVG 1.1//EN" "http://www.w3.org/Graphics/SVG/1.1/DTD/svg11.dtd"><svg t="1575101362619" class="icon" viewBox="0 0 1024 1024" version="1.1" xmlns="http://www.w3.org/2000/svg" p-id="4380" xmlns:xlink="http://www.w3.org/1999/xlink" width="200" height="200"><defs><style type="text/css"></style></defs><path d="M805.888 428.032V311.296c0-54.272-191.488-68.608-293.888-68.608s-293.888 14.336-293.888 68.608v116.736a29.696 29.696 0 0 0 14.336 22.528 28.672 28.672 0 0 0-14.336 24.576v116.736a30.72 30.72 0 0 0 15.36 23.552 28.672 28.672 0 0 0-15.36 24.576v116.736c0 54.272 191.488 68.608 293.888 68.608s293.888-14.336 293.888-68.608V640a29.696 29.696 0 0 0-15.36-24.576 30.72 30.72 0 0 0 15.36-23.552V475.136a29.696 29.696 0 0 0-15.36-24.576 29.696 29.696 0 0 0 15.36-22.528zM768 442.368h-2.048c-35.84 15.36-122.88 32.768-253.952 32.768s-216.064-17.408-252.928-32.768h-2.048c-12.288-5.12-18.432-10.24-18.432-14.336v-89.088c52.224 31.744 191.488 40.96 273.408 40.96s221.184-9.216 273.408-40.96v88.064c0 4.096-6.144 9.216-18.432 14.336zM512 263.168c176.128 0 273.408 31.744 273.408 48.128s-97.28 48.128-273.408 48.128-273.408-31.744-273.408-48.128 97.28-48.128 273.408-48.128z m273.408 327.68c0 16.384-96.256 48.128-273.408 48.128s-273.408-31.744-273.408-48.128v-88.064c52.224 31.744 191.488 40.96 273.408 40.96s221.184-9.216 273.408-40.96zM512 803.84c-176.128 0-273.408-31.744-273.408-48.128v-88.064c52.224 31.744 191.488 40.96 273.408 40.96s221.184-9.216 273.408-40.96v88.064c0 16.384-97.28 48.128-273.408 48.128z m273.408-163.84c0 16.384-96.256 48.128-273.408 48.128s-273.408-31.744-273.408-48.128 0-6.144 16.384-13.312c60.416 24.576 182.272 32.768 257.024 32.768s196.608-7.168 257.024-32.768c10.24 5.12 16.384 9.216 16.384 13.312z m0-164.864c0 16.384-96.256 48.128-273.408 48.128S238.592 491.52 238.592 475.136s0-6.144 15.36-12.288c60.416 25.6 183.296 32.768 258.048 32.768s197.632-8.192 258.048-32.768c10.24 4.096 15.36 8.192 15.36 12.288z" p-id="4381"></path><path d="M628.736 112.64a10.24 10.24 0 1 0-5.12 19.456A415.744 415.744 0 1 1 481.28 118.784L448.512 143.36a10.24 10.24 0 0 0 6.144 18.432l6.144-2.048 57.344-45.056-59.392-40.96a10.24 10.24 0 1 0-11.264 16.384l33.792 7.168A435.2 435.2 0 1 0 628.736 112.64z" p-id="4382"></path></svg>