<?xml version="1.0" standalone="no"?><!DOCTYPE svg PUBLIC "-//W3C//DTD SVG 1.1//EN" "http://www.w3.org/Graphics/SVG/1.1/DTD/svg11.dtd"><svg t="1575101367307" class="icon" viewBox="0 0 1024 1024" version="1.1" xmlns="http://www.w3.org/2000/svg" p-id="4492" xmlns:xlink="http://www.w3.org/1999/xlink" width="200" height="200"><defs><style type="text/css"></style></defs><path d="M346.112 106.496L337.92 88.064l-19.456 8.192 8.192 18.432zM382.976 93.184l-6.144-19.456-19.456 6.144 7.168 19.456zM309.248 123.904l-9.216-18.432-18.432 10.24 10.24 17.408zM275.456 143.36l-11.264-17.408-17.408 11.264 12.288 16.384zM421.888 83.968l-4.096-20.48-20.48 5.12 5.12 19.456zM460.8 76.8l-2.048-20.48-20.48 3.072 3.072 20.48zM75.776 473.088l-20.48-2.048q-1.024 10.24-1.024 20.48h20.48q0-8.192 1.024-18.432zM118.784 320.512l-18.432-9.216-9.216 19.456 18.432 8.192zM102.4 356.352l-19.456-7.168-7.168 19.456 19.456 6.144zM90.112 395.264L70.656 389.12l-5.12 20.48 19.456 4.096zM73.728 513.024h-20.48v20.48h20.48q1.024-10.24 0-20.48zM242.688 166.912l-12.288-16.384-16.384 13.312 13.312 15.36zM80.896 433.152L61.44 430.08l-3.072 20.48 20.48 3.072zM184.32 221.184l-15.36-13.312-13.312 16.384 16.384 13.312zM212.992 192.512l-14.336-15.36-15.36 14.336 14.336 14.336zM159.744 251.904L143.36 239.616l-12.288 17.408 17.408 11.264zM137.216 285.696l-17.408-10.24-10.24 18.432 18.432 10.24zM664.576 79.872L645.12 73.728l-6.144 19.456 19.456 6.144zM913.408 335.872L931.84 327.68l-9.216-18.432-18.432 9.216zM894.976 301.056l18.432-10.24-10.24-18.432-17.408 10.24zM850.944 234.496l15.36-13.312-13.312-15.36-15.36 13.312zM874.496 266.24l17.408-11.264-12.288-17.408-16.384 12.288zM927.744 373.76l19.456-6.144-7.168-19.456-19.456 7.168zM937.984 411.648l19.456-5.12-5.12-20.48-19.456 5.12zM949.248 490.496h20.48q-1.024-10.24-1.024-20.48l-20.48 2.048q1.024 8.192 1.024 18.432zM945.152 450.56l20.48-3.072-3.072-20.48-20.48 4.096zM702.464 95.232l-19.456-8.192-7.168 19.456 18.432 8.192zM624.64 67.584l-20.48-5.12-4.096 20.48 19.456 4.096zM583.68 59.392l-20.48-3.072-2.048 20.48 19.456 3.072zM541.696 54.272h-20.48v20.48h19.456zM75.776 552.96l-20.48 2.048 2.048 20.48 20.48-3.072q-1.024-10.24-2.048-19.456zM838.656 190.464l-15.36-14.336-14.336 15.36 15.36 13.312zM500.736 74.752v-20.48h-20.48v20.48zM775.168 137.216L757.76 124.928l-11.264 17.408 17.408 11.264zM740.352 114.688l-18.432-10.24-9.216 18.432 17.408 9.216zM969.728 509.952h-20.48v21.504h20.48v-21.504zM791.552 149.504l-12.288 16.384 15.36 12.288 13.312-15.36zM825.344 818.176l14.336 14.336 14.336-15.36-15.36-13.312zM731.136 890.88l10.24 17.408 17.408-11.264L747.52 880.64zM795.648 844.8l13.312 16.384 15.36-14.336-14.336-15.36zM764.928 869.376l12.288 16.384 16.384-12.288-12.288-16.384zM620.544 935.936l5.12 19.456 20.48-6.144-6.144-19.456zM581.632 944.128l3.072 20.48 20.48-4.096-4.096-20.48zM658.432 924.672l7.168 19.456 19.456-7.168-8.192-19.456zM695.296 909.312l8.192 18.432 18.432-9.216-8.192-17.408zM851.968 788.48l15.36 13.312 13.312-17.408-16.384-12.288zM939.008 610.304l19.456 4.096 4.096-20.48-20.48-4.096zM946.176 571.392l20.48 3.072c1.024-7.168 2.048-13.312 2.048-20.48l-20.48-2.048q-1.024 10.24-2.048 19.456zM927.744 649.216l19.456 6.144 6.144-20.48-19.456-5.12zM81.92 591.872l-20.48 4.096 4.096 20.48 19.456-5.12zM896 721.92l18.432 10.24 9.216-18.432-18.432-9.216zM913.408 686.08l18.432 8.192 8.192-19.456-18.432-7.168zM875.52 756.736l16.384 11.264 11.264-17.408-17.408-10.24zM199.68 846.848l15.36 14.336 13.312-15.36-15.36-13.312zM160.768 773.12l-16.384 12.288 13.312 16.384 15.36-13.312zM169.984 817.152l14.336 15.36 14.336-14.336-13.312-14.336zM231.424 874.496l16.384 12.288 12.288-16.384-16.384-12.288zM118.784 705.536l-18.432 9.216 9.216 18.432 18.432-10.24zM138.24 740.352l-17.408 10.24 11.264 17.408 17.408-11.264zM90.112 630.784l-19.456 5.12 6.144 19.456 19.456-6.144zM103.424 668.672l-19.456 7.168 8.192 19.456 18.432-8.192zM265.216 898.048l17.408 11.264 10.24-17.408L276.48 880.64zM338.944 936.96l19.456 7.168 7.168-19.456-18.432-7.168zM301.056 919.552l18.432 9.216 8.192-18.432-16.384-9.216zM513.024 950.272h-10.24v20.48h20.48v-20.48zM418.816 960.512l20.48 4.096 3.072-20.48-19.456-3.072zM460.8 967.68l20.48 2.048v-20.48l-19.456-2.048zM542.72 948.224v20.48l20.48-2.048-2.048-20.48zM378.88 950.272l20.48 5.12 5.12-19.456-19.456-5.12zM510.976 454.656a62.464 62.464 0 1 0 62.464 62.464 62.464 62.464 0 0 0-62.464-62.464z m0 103.424a41.984 41.984 0 1 1 41.984-41.984 41.984 41.984 0 0 1-41.984 41.984z" p-id="4493"></path><path d="M791.552 749.568V619.52a47.104 47.104 0 0 0-47.104-47.104h-30.72a208.896 208.896 0 0 0-3.072-120.832h33.792a47.104 47.104 0 0 0 47.104-47.104V274.432a47.104 47.104 0 0 0-47.104-47.104H614.4a47.104 47.104 0 0 0-47.104 47.104v39.936a214.016 214.016 0 0 0-111.616-1.024v-38.912a47.104 47.104 0 0 0-46.08-47.104H278.528a47.104 47.104 0 0 0-47.104 47.104v130.048a47.104 47.104 0 0 0 47.104 47.104h31.744a208.896 208.896 0 0 0-3.072 120.832h-28.672a47.104 47.104 0 0 0-47.104 47.104v130.048a47.104 47.104 0 0 0 47.104 47.104H409.6a47.104 47.104 0 0 0 47.104-47.104v-28.672a208.896 208.896 0 0 0 111.616-1.024v29.696a47.104 47.104 0 0 0 46.08 47.104h131.072a47.104 47.104 0 0 0 46.08-47.104zM587.776 274.432a26.624 26.624 0 0 1 26.624-26.624h131.072a26.624 26.624 0 0 1 26.624 26.624v130.048a26.624 26.624 0 0 1-26.624 26.624H614.4a26.624 26.624 0 0 1-26.624-26.624zM252.928 404.48V274.432a26.624 26.624 0 0 1 26.624-26.624H409.6a26.624 26.624 0 0 1 26.624 26.624v130.048a26.624 26.624 0 0 1-26.624 26.624H278.528a26.624 26.624 0 0 1-25.6-26.624z m183.296 345.088a26.624 26.624 0 0 1-26.624 26.624H278.528a26.624 26.624 0 0 1-26.624-26.624V619.52a26.624 26.624 0 0 1 26.624-26.624H409.6a26.624 26.624 0 0 1 26.624 26.624z m131.072-130.048v78.848a192.512 192.512 0 0 1-111.616 1.024v-79.872a47.104 47.104 0 0 0-46.08-47.104h-80.896a188.416 188.416 0 0 1 3.072-120.832H409.6a47.104 47.104 0 0 0 47.104-47.104v-70.656a192.512 192.512 0 0 1 111.616 1.024v69.632a47.104 47.104 0 0 0 46.08 47.104h74.752a188.416 188.416 0 0 1 3.072 120.832H614.4a47.104 47.104 0 0 0-47.104 47.104z m20.48 131.072V619.52a26.624 26.624 0 0 1 26.624-26.624h131.072a26.624 26.624 0 0 1 26.624 26.624v130.048a26.624 26.624 0 0 1-26.624 26.624H614.4a26.624 26.624 0 0 1-26.624-26.624z" p-id="4494"></path></svg>