<?xml version="1.0" standalone="no"?><!DOCTYPE svg PUBLIC "-//W3C//DTD SVG 1.1//EN" "http://www.w3.org/Graphics/SVG/1.1/DTD/svg11.dtd"><svg t="1575101377640" class="icon" viewBox="0 0 1024 1024" version="1.1" xmlns="http://www.w3.org/2000/svg" p-id="4855" xmlns:xlink="http://www.w3.org/1999/xlink" width="200" height="200"><defs><style type="text/css"></style></defs><path d="M577.536 549.888c86.016-30.72 147.456-122.88 147.456-230.4 0-133.12-95.232-241.664-211.968-241.664S300.032 185.344 300.032 318.464c0 107.52 62.464 199.68 147.456 230.4C310.272 587.776 207.872 747.52 207.872 936.96a10.24 10.24 0 0 0 10.24 10.24h588.8a10.24 10.24 0 0 0 10.24-10.24c0-189.44-102.4-349.184-239.616-387.072z m-256-230.4c0-121.856 86.016-221.184 191.488-221.184s191.488 99.328 191.488 221.184-86.016 221.184-191.488 221.184-192.512-99.328-192.512-222.208z m191.488 241.664c154.624 0 280.576 162.816 284.672 365.568H228.352c4.096-202.752 130.048-365.568 284.672-365.568z" p-id="4856"></path><path d="M758.784 557.056c71.68-28.672 123.904-106.496 123.904-197.632 0-115.712-82.944-209.92-184.32-209.92a10.24 10.24 0 1 0 0 20.48c90.112 0 163.84 84.992 163.84 189.44s-73.728 189.44-163.84 189.44a10.24 10.24 0 0 0 0 20.48C830.464 569.344 937.984 707.584 942.08 880.64H826.368a10.24 10.24 0 0 0 0 20.48H952.32a10.24 10.24 0 0 0 10.24-10.24c0-161.792-87.04-297.984-203.776-333.824zM197.632 880.64H81.92c4.096-173.056 111.616-311.296 242.688-311.296a10.24 10.24 0 0 0 0-20.48c-90.112 0-163.84-84.992-163.84-189.44s73.728-189.44 163.84-189.44a10.24 10.24 0 0 0 0-20.48c-101.376 0-184.32 94.208-184.32 209.92 0 92.16 52.224 169.984 123.904 197.632C148.48 592.896 61.44 729.088 61.44 890.88a10.24 10.24 0 0 0 10.24 10.24h125.952a10.24 10.24 0 0 0 0-20.48z" p-id="4857"></path></svg>