<?xml version="1.0" standalone="no"?><!DOCTYPE svg PUBLIC "-//W3C//DTD SVG 1.1//EN" "http://www.w3.org/Graphics/SVG/1.1/DTD/svg11.dtd"><svg t="1575101381107" class="icon" viewBox="0 0 1024 1024" version="1.1" xmlns="http://www.w3.org/2000/svg" p-id="4967" xmlns:xlink="http://www.w3.org/1999/xlink" width="200" height="200"><defs><style type="text/css"></style></defs><path d="M54.272 177.152v669.696h915.456V177.152z m894.976 649.216H74.752V197.632h874.496z" p-id="4968"></path><path d="M179.2 719.872h20.48a154.624 154.624 0 0 1 310.272 0h20.48A176.128 176.128 0 0 0 408.576 552.96a130.048 130.048 0 1 0-107.52 0 176.128 176.128 0 0 0-121.856 166.912zM245.76 435.2a109.568 109.568 0 1 1 109.568 109.568A109.568 109.568 0 0 1 245.76 435.2zM590.848 615.424H870.4v20.48H590.848zM590.848 441.344H870.4v20.48H590.848z" p-id="4969"></path></svg>