<?xml version="1.0" standalone="no"?><!DOCTYPE svg PUBLIC "-//W3C//DTD SVG 1.1//EN" "http://www.w3.org/Graphics/SVG/1.1/DTD/svg11.dtd"><svg t="1575101385788" class="icon" viewBox="0 0 1024 1024" version="1.1" xmlns="http://www.w3.org/2000/svg" p-id="5079" xmlns:xlink="http://www.w3.org/1999/xlink" width="200" height="200"><defs><style type="text/css"></style></defs><path d="M758.784 418.816a191.488 191.488 0 0 0-39.936 4.096 209.92 209.92 0 0 0-414.72-43.008 91.136 91.136 0 0 0-44.032-11.264 93.184 93.184 0 0 0-93.184 93.184 84.992 84.992 0 0 0 1.024 9.216 177.152 177.152 0 0 0 80.896 333.824h509.952a193.536 193.536 0 0 0 0-387.072zM757.76 785.408H248.832a156.672 156.672 0 0 1-65.536-297.984 10.24 10.24 0 0 0 6.144-11.264 72.704 72.704 0 0 1 71.68-87.04 71.68 71.68 0 0 1 45.056 15.36 10.24 10.24 0 0 0 16.384-6.144 189.44 189.44 0 0 1 376.832 30.72v7.168a10.24 10.24 0 0 0 13.312 10.24A173.056 173.056 0 1 1 757.76 785.408z" p-id="5080"></path><path d="M618.496 473.088L470.016 620.544 399.36 549.888a10.24 10.24 0 0 0-14.336 14.336l84.992 84.992 162.816-161.792a10.24 10.24 0 0 0-14.336-14.336z" p-id="5081"></path></svg>