<?xml version="1.0" standalone="no"?><!DOCTYPE svg PUBLIC "-//W3C//DTD SVG 1.1//EN" "http://www.w3.org/Graphics/SVG/1.1/DTD/svg11.dtd"><svg t="1575101413927" class="icon" viewBox="0 0 1024 1024" version="1.1" xmlns="http://www.w3.org/2000/svg" p-id="5749" xmlns:xlink="http://www.w3.org/1999/xlink" width="200" height="200"><defs><style type="text/css"></style></defs><path d="M752.64 717.824A121.856 121.856 0 0 0 645.12 783.36l-265.216-163.84a120.832 120.832 0 0 0-20.48-134.144l197.632-214.016a122.88 122.88 0 1 0-13.312-15.36L345.088 471.04a120.832 120.832 0 1 0 24.576 165.888l267.264 165.888a121.856 121.856 0 1 0 115.712-84.992zM642.048 83.968a101.376 101.376 0 1 1-101.376 100.352 101.376 101.376 0 0 1 101.376-100.352z m-370.688 583.68a101.376 101.376 0 1 1 101.376-101.376 101.376 101.376 0 0 1-101.376 101.376z m481.28 272.384a101.376 101.376 0 1 1 101.376-100.352 101.376 101.376 0 0 1-101.376 100.352z" p-id="5750"></path></svg>