<?xml version="1.0" standalone="no"?><!DOCTYPE svg PUBLIC "-//W3C//DTD SVG 1.1//EN" "http://www.w3.org/Graphics/SVG/1.1/DTD/svg11.dtd"><svg t="1575101419113" class="icon" viewBox="0 0 1024 1024" version="1.1" xmlns="http://www.w3.org/2000/svg" p-id="5860" xmlns:xlink="http://www.w3.org/1999/xlink" width="200" height="200"><defs><style type="text/css"></style></defs><path d="M961.536 748.544V159.744a10.24 10.24 0 0 0-20.48 0v568.32H82.944V169.984h735.232a10.24 10.24 0 0 0 0-20.48H62.464v599.04H501.76v105.472H314.368a10.24 10.24 0 1 0 0 20.48h395.264a10.24 10.24 0 0 0 0-20.48H522.24V748.544z" p-id="5861"></path><path d="M686.08 413.696c-15.36-98.304-76.8-152.576-174.08-152.576s-146.432 65.536-155.648 105.472a126.976 126.976 0 0 0-126.976 113.664 143.36 143.36 0 0 0 31.744 108.544 141.312 141.312 0 0 0 92.16 51.2h1.024l349.184-2.048a94.208 94.208 0 0 0 86.016-53.248 129.024 129.024 0 0 0-6.144-129.024c-21.504-29.696-55.296-45.056-97.28-41.984z m84.992 160.768a74.752 74.752 0 0 1-67.584 43.008l-349.184 2.048a120.832 120.832 0 0 1-77.824-43.008 122.88 122.88 0 0 1-26.624-93.184A106.496 106.496 0 0 1 358.4 387.072h16.384v-10.24c2.048-18.432 31.744-95.232 137.216-95.232 90.112 0 143.36 50.176 154.624 144.384v10.24h10.24c49.152-6.144 74.752 13.312 87.04 31.744a107.52 107.52 0 0 1 7.168 107.52z" p-id="5862"></path></svg>