<?xml version="1.0" standalone="no"?><!DOCTYPE svg PUBLIC "-//W3C//DTD SVG 1.1//EN" "http://www.w3.org/Graphics/SVG/1.1/DTD/svg11.dtd"><svg t="1575101423918" class="icon" viewBox="0 0 1024 1024" version="1.1" xmlns="http://www.w3.org/2000/svg" p-id="5972" xmlns:xlink="http://www.w3.org/1999/xlink" width="200" height="200"><defs><style type="text/css"></style></defs><path d="M362.496 119.808H100.352a29.696 29.696 0 0 0-29.696 29.696v262.144a29.696 29.696 0 0 0 29.696 29.696h262.144a29.696 29.696 0 0 0 29.696-29.696V149.504a29.696 29.696 0 0 0-29.696-29.696z m9.216 292.864a9.216 9.216 0 0 1-9.216 9.216H100.352a9.216 9.216 0 0 1-9.216-9.216V149.504a9.216 9.216 0 0 1 9.216-9.216h262.144a9.216 9.216 0 0 1 9.216 9.216zM362.496 581.632H100.352a29.696 29.696 0 0 0-29.696 29.696v263.168a29.696 29.696 0 0 0 29.696 29.696h262.144a29.696 29.696 0 0 0 29.696-29.696V612.352a29.696 29.696 0 0 0-29.696-30.72z m9.216 292.864a9.216 9.216 0 0 1-9.216 9.216H100.352a9.216 9.216 0 0 1-9.216-9.216V612.352a9.216 9.216 0 0 1 9.216-9.216h262.144a9.216 9.216 0 0 1 9.216 9.216zM517.12 190.464h447.488v20.48H517.12zM517.12 354.304h447.488v20.48H517.12zM517.12 663.552h447.488v20.48H517.12zM517.12 816.128h447.488v20.48H517.12z" p-id="5973"></path></svg>