<?xml version="1.0" standalone="no"?><!DOCTYPE svg PUBLIC "-//W3C//DTD SVG 1.1//EN" "http://www.w3.org/Graphics/SVG/1.1/DTD/svg11.dtd"><svg t="1575101437448" class="icon" viewBox="0 0 1024 1024" version="1.1" xmlns="http://www.w3.org/2000/svg" p-id="6324" xmlns:xlink="http://www.w3.org/1999/xlink" width="200" height="200"><defs><style type="text/css"></style></defs><path d="M884.736 179.2h-93.184v-40.96h-39.936V63.488h-100.352v74.752h-39.936v39.936h-93.184a35.84 35.84 0 0 0-35.84 35.84v74.752a10.24 10.24 0 1 0 20.48 0v-74.752a15.36 15.36 0 0 1 15.36-15.36h93.184v52.224h180.224v-51.2h93.184a15.36 15.36 0 0 1 15.36 15.36v577.536a15.36 15.36 0 0 1-15.36 15.36H563.2a10.24 10.24 0 0 0 0 20.48h321.536a35.84 35.84 0 0 0 35.84-35.84V214.016a35.84 35.84 0 0 0-35.84-34.816zM671.744 83.968h60.416v54.272h-60.416z m100.352 146.432H631.808v-71.68h139.264z" p-id="6325"></path><path d="M821.248 346.112a10.24 10.24 0 1 0 0-20.48H578.56a10.24 10.24 0 0 0 0 20.48zM563.2 435.2a10.24 10.24 0 0 0 10.24 10.24h242.688a10.24 10.24 0 0 0 0-20.48H573.44a10.24 10.24 0 0 0-10.24 10.24zM573.44 544.768h242.688a10.24 10.24 0 0 0 0-20.48H573.44a10.24 10.24 0 0 0 0 20.48zM573.44 651.264h242.688a10.24 10.24 0 0 0 0-20.48H573.44a10.24 10.24 0 0 0 0 20.48zM505.856 310.272h-93.184v-39.936h-39.936v-74.752h-100.352v74.752h-39.936v39.936h-93.184a35.84 35.84 0 0 0-35.84 35.84v578.56a35.84 35.84 0 0 0 35.84 35.84h366.592a35.84 35.84 0 0 0 35.84-35.84V346.112a35.84 35.84 0 0 0-35.84-35.84z m-212.992-94.208h60.416v54.272h-60.416z m-39.936 74.752h139.264v71.68H252.928z m268.288 633.856a15.36 15.36 0 0 1-15.36 15.36H139.264a15.36 15.36 0 0 1-15.36-15.36V346.112a15.36 15.36 0 0 1 15.36-15.36h93.184v52.224h180.224v-52.224h93.184a15.36 15.36 0 0 1 15.36 15.36z" p-id="6326"></path><path d="M441.344 457.728H198.656a10.24 10.24 0 0 0 0 20.48h242.688a10.24 10.24 0 0 0 0-20.48zM437.248 557.056H194.56a10.24 10.24 0 1 0 0 20.48h242.688a10.24 10.24 0 0 0 0-20.48zM437.248 656.384H194.56a10.24 10.24 0 0 0 0 20.48h242.688a10.24 10.24 0 0 0 0-20.48zM437.248 761.856H194.56a10.24 10.24 0 0 0 0 20.48h242.688a10.24 10.24 0 0 0 0-20.48z" p-id="6327"></path></svg>