<?xml version="1.0" standalone="no"?><!DOCTYPE svg PUBLIC "-//W3C//DTD SVG 1.1//EN" "http://www.w3.org/Graphics/SVG/1.1/DTD/svg11.dtd"><svg t="1575101446734" class="icon" viewBox="0 0 1024 1024" version="1.1" xmlns="http://www.w3.org/2000/svg" p-id="6549" xmlns:xlink="http://www.w3.org/1999/xlink" width="200" height="200"><defs><style type="text/css"></style></defs><path d="M917.504 71.68H453.632a34.816 34.816 0 0 0-34.816 34.816v227.328a34.816 34.816 0 0 0 34.816 34.816h463.872a34.816 34.816 0 0 0 34.816-34.816V106.496A34.816 34.816 0 0 0 917.504 71.68zM931.84 333.824a14.336 14.336 0 0 1-14.336 14.336H453.632a14.336 14.336 0 0 1-14.336-14.336V106.496A14.336 14.336 0 0 1 453.632 92.16h463.872a14.336 14.336 0 0 1 14.336 14.336zM106.496 605.184h227.328a34.816 34.816 0 0 0 34.816-34.816V106.496A34.816 34.816 0 0 0 333.824 71.68H106.496A34.816 34.816 0 0 0 71.68 106.496v463.872a34.816 34.816 0 0 0 34.816 34.816zM92.16 106.496A14.336 14.336 0 0 1 106.496 92.16h227.328a14.336 14.336 0 0 1 14.336 14.336v463.872a14.336 14.336 0 0 1-14.336 14.336H106.496A14.336 14.336 0 0 1 92.16 570.368zM570.368 655.36H106.496A34.816 34.816 0 0 0 71.68 690.176v227.328a34.816 34.816 0 0 0 34.816 34.816h463.872a34.816 34.816 0 0 0 34.816-34.816V690.176a34.816 34.816 0 0 0-34.816-34.816z m14.336 262.144a14.336 14.336 0 0 1-14.336 14.336H106.496A14.336 14.336 0 0 1 92.16 917.504V690.176a14.336 14.336 0 0 1 14.336-14.336h463.872a14.336 14.336 0 0 1 14.336 14.336zM917.504 418.816H690.176a34.816 34.816 0 0 0-34.816 34.816v463.872a34.816 34.816 0 0 0 34.816 34.816h227.328a34.816 34.816 0 0 0 34.816-34.816V453.632a34.816 34.816 0 0 0-34.816-34.816zM931.84 917.504a14.336 14.336 0 0 1-14.336 14.336H690.176a14.336 14.336 0 0 1-14.336-14.336V453.632a14.336 14.336 0 0 1 14.336-14.336h227.328a14.336 14.336 0 0 1 14.336 14.336zM591.872 512a84.992 84.992 0 1 0-84.992 84.992 84.992 84.992 0 0 0 84.992-84.992z m-149.504 0a64.512 64.512 0 1 1 64.512 64.512 64.512 64.512 0 0 1-64.512-64.512z" p-id="6550"></path></svg>