<?xml version="1.0" standalone="no"?><!DOCTYPE svg PUBLIC "-//W3C//DTD SVG 1.1//EN" "http://www.w3.org/Graphics/SVG/1.1/DTD/svg11.dtd"><svg t="1575101449920" class="icon" viewBox="0 0 1024 1024" version="1.1" xmlns="http://www.w3.org/2000/svg" p-id="6660" xmlns:xlink="http://www.w3.org/1999/xlink" width="200" height="200"><defs><style type="text/css"></style></defs><path d="M276.48 144.384l-11.264-17.408-17.408 11.264 12.288 16.384zM310.272 124.928l-9.216-18.432-18.432 10.24 10.24 17.408zM346.112 108.544L337.92 89.088l-19.456 8.192 8.192 18.432zM421.888 84.992l-4.096-20.48-20.48 5.12 5.12 19.456zM384 95.232l-6.144-19.456-20.48 6.144 7.168 19.456zM243.712 167.936l-12.288-16.384-16.384 13.312 13.312 15.36zM119.808 320.512l-18.432-9.216-9.216 19.456 18.432 8.192zM160.768 252.928l-16.384-12.288-12.288 17.408 17.408 11.264zM212.992 193.536l-14.336-15.36-14.336 15.36 14.336 14.336zM460.8 78.848l-2.048-20.48-20.48 3.072 3.072 20.48zM138.24 285.696l-17.408-10.24-10.24 18.432 18.432 10.24zM185.344 222.208l-15.36-13.312-13.312 15.36 16.384 13.312zM911.36 336.896l18.432-8.192-8.192-19.456-18.432 9.216zM873.472 267.264L890.88 256l-12.288-17.408-16.384 12.288zM893.952 301.056l18.432-10.24-10.24-18.432-17.408 10.24zM91.136 395.264L71.68 389.12l-5.12 20.48 19.456 4.096zM849.92 235.52l15.36-13.312-13.312-15.36-15.36 13.312zM948.224 490.496h20.48q0-10.24-1.024-20.48l-20.48 2.048q0 8.192 1.024 18.432zM944.128 450.56l20.48-3.072-3.072-20.48-20.48 4.096zM837.632 191.488l-15.36-14.336-13.312 15.36 14.336 14.336zM936.96 411.648l19.456-5.12-5.12-20.48-19.456 5.12zM925.696 373.76l19.456-6.144-6.144-19.456-19.456 7.168zM807.936 163.84l-16.384-13.312-13.312 16.384 15.36 12.288zM623.616 68.608l-20.48-5.12-4.096 20.48 19.456 4.096zM583.68 60.416l-20.48-3.072-2.048 20.48 19.456 3.072zM663.552 80.896l-19.456-6.144-6.144 19.456 18.432 6.144zM541.696 56.32h-20.48v20.48h19.456zM500.736 75.776v-20.48h-20.48v20.48zM774.144 138.24l-17.408-11.264-10.24 16.384 16.384 11.264zM702.464 96.256l-19.456-8.192-7.168 19.456 18.432 8.192zM739.328 115.712l-18.432-10.24-9.216 18.432 17.408 9.216zM103.424 357.376l-19.456-7.168-7.168 19.456 19.456 6.144zM658.432 923.648l7.168 19.456 19.456-7.168-8.192-19.456zM620.544 934.912l5.12 19.456 20.48-5.12-6.144-19.456zM730.112 889.856l10.24 17.408 17.408-11.264-10.24-16.384zM695.296 908.288l8.192 18.432 18.432-9.216-9.216-18.432zM581.632 943.104l3.072 20.48 20.48-4.096-4.096-20.48zM378.88 949.248l20.48 5.12 5.12-19.456-19.456-5.12zM419.84 959.488l20.48 4.096 3.072-20.48-19.456-3.072zM460.8 965.632l20.48 2.048v-20.48l-19.456-2.048zM763.904 868.352l12.288 16.384 16.384-12.288-12.288-16.384zM541.696 947.2v20.48l20.48-2.048-2.048-20.48zM502.784 948.224v20.48h20.48v-20.48zM926.72 649.216l19.456 6.144 6.144-20.48-19.456-5.12zM912.384 686.08l18.432 8.192 8.192-19.456-19.456-7.168zM936.96 610.304l19.456 5.12 4.096-20.48-20.48-4.096zM968.704 509.952h-20.48v21.504h20.48v-20.48zM944.128 571.392l20.48 3.072 2.048-20.48-20.48-2.048q0 9.216-2.048 19.456zM894.976 721.92l18.432 10.24 9.216-18.432-18.432-9.216zM850.944 787.456l16.384 13.312 12.288-16.384-16.384-12.288zM794.624 843.776l13.312 16.384 15.36-14.336-14.336-15.36zM824.32 817.152l14.336 14.336 14.336-15.36-15.36-13.312zM874.496 755.712l16.384 11.264 11.264-17.408-17.408-10.24zM92.16 630.784l-20.48 5.12 6.144 19.456 19.456-6.144zM161.792 772.096l-16.384 12.288 12.288 16.384 16.384-13.312zM139.264 739.328l-17.408 10.24 11.264 17.408 17.408-11.264zM339.968 935.936l19.456 7.168 7.168-19.456-18.432-7.168zM77.824 552.96l-20.48 2.048 2.048 20.48 20.48-3.072q-2.048-10.24-2.048-19.456zM82.944 434.176l-20.48-4.096q-2.048 10.24-3.072 20.48l20.48 3.072zM119.808 704.512l-18.432 9.216 9.216 18.432 18.432-10.24zM104.448 668.672l-19.456 7.168 8.192 19.456 18.432-8.192zM171.008 816.128l14.336 15.36 14.336-14.336-13.312-14.336zM266.24 897.024l17.408 11.264 10.24-17.408-17.408-10.24zM232.448 873.472l16.384 12.288 12.288-16.384-16.384-12.288zM200.704 845.824l15.36 14.336 13.312-15.36-15.36-13.312zM302.08 917.504l18.432 9.216 8.192-18.432-17.408-9.216zM76.8 473.088l-20.48-2.048q-1.024 10.24-1.024 20.48h20.48q1.024-8.192 1.024-18.432zM75.776 513.024h-20.48v20.48h20.48v-20.48zM82.944 591.872l-20.48 4.096 4.096 20.48 19.456-5.12zM254.976 758.784h514.048a41.984 41.984 0 0 0 41.984-41.984V398.336a41.984 41.984 0 0 0-41.984-41.984H254.976a41.984 41.984 0 0 0-41.984 41.984v319.488a41.984 41.984 0 0 0 41.984 40.96z m-20.48-360.448a21.504 21.504 0 0 1 21.504-21.504h513.024a21.504 21.504 0 0 1 21.504 21.504v319.488a21.504 21.504 0 0 1-21.504 21.504H254.976a21.504 21.504 0 0 1-21.504-21.504zM264.192 311.296h496.64v20.48H264.192zM296.96 264.192h431.104v20.48H296.96z" p-id="6661"></path><path d="M404.48 565.248a43.008 43.008 0 1 0-43.008-43.008 43.008 43.008 0 0 0 43.008 43.008z m0-64.512a22.528 22.528 0 1 1-22.528 21.504 22.528 22.528 0 0 1 22.528-22.528z" p-id="6662"></path><path d="M313.344 555.008h4.096l5.12 11.264 6.144 10.24-3.072 5.12a35.84 35.84 0 0 0 11.264 49.152 35.84 35.84 0 0 0 49.152-11.264l3.072-4.096a93.184 93.184 0 0 0 25.6 1.024l2.048 3.072a35.84 35.84 0 1 0 62.464-33.792l-2.048-3.072a92.16 92.16 0 0 0 13.312-20.48h4.096a34.816 34.816 0 0 0 25.6-9.216 35.84 35.84 0 0 0-23.552-61.44H491.52l-5.12-11.264-7.168-11.264v-2.048a35.84 35.84 0 0 0-59.392-38.912l-2.048 3.072a91.136 91.136 0 0 0-23.552-1.024l-2.048-3.072a35.84 35.84 0 1 0-62.464 33.792l2.048 3.072a92.16 92.16 0 0 0-13.312 20.48h-4.096a35.84 35.84 0 0 0-25.6 9.216 35.84 35.84 0 0 0 23.552 61.44z m-9.216-46.08a14.336 14.336 0 0 1 10.24-4.096h18.432l2.048-7.168a71.68 71.68 0 0 1 16.384-26.624l5.12-5.12-8.192-16.384a15.36 15.36 0 0 1 6.144-20.48 15.36 15.36 0 0 1 20.48 6.144l9.216 16.384h7.168a71.68 71.68 0 0 1 29.696 1.024l7.168 2.048 9.216-15.36a15.36 15.36 0 0 1 20.48-5.12 15.36 15.36 0 0 1 5.12 20.48l-9.216 14.336 5.12 6.144a71.68 71.68 0 0 1 15.36 26.624l2.048 7.168h18.432a15.36 15.36 0 0 1 10.24 25.6 15.36 15.36 0 0 1-10.24 4.096h-19.456l-2.048 7.168a71.68 71.68 0 0 1-16.384 26.624l-5.12 5.12 9.216 16.384a15.36 15.36 0 0 1-6.144 20.48 15.36 15.36 0 0 1-20.48-6.144l-9.216-16.384h-7.168a71.68 71.68 0 0 1-31.744-1.024l-7.168-2.048-10.24 16.384a15.36 15.36 0 0 1-20.48 5.12 15.36 15.36 0 0 1-5.12-20.48l10.24-17.408-5.12-6.144-8.192-12.288a73.728 73.728 0 0 1-6.144-14.336l-2.048-7.168h-18.432a15.36 15.36 0 0 1-10.24-25.6zM619.52 636.928a43.008 43.008 0 1 0-41.984-43.008 43.008 43.008 0 0 0 41.984 43.008z m0-64.512a22.528 22.528 0 1 1-21.504 21.504 22.528 22.528 0 0 1 21.504-21.504z" p-id="6663"></path><path d="M494.592 590.848a35.84 35.84 0 0 0 34.816 36.864h3.072l5.12 11.264 6.144 10.24-3.072 5.12a35.84 35.84 0 0 0 60.416 36.864l3.072-5.12a92.16 92.16 0 0 0 25.6 1.024l2.048 3.072a35.84 35.84 0 1 0 62.464-33.792l-2.048-3.072a92.16 92.16 0 0 0 13.312-20.48h4.096a35.84 35.84 0 0 0 2.048-70.656H706.56l-5.12-11.264-7.168-11.264v-2.048a35.84 35.84 0 0 0-60.416-36.864l-2.048 3.072a92.16 92.16 0 0 0-23.552-1.024l-2.048-3.072a35.84 35.84 0 1 0-62.464 33.792l2.048 3.072a92.16 92.16 0 0 0-13.312 20.48h-4.096a35.84 35.84 0 0 0-36.864 34.816z m25.6-10.24a14.336 14.336 0 0 1 10.24-4.096h18.432l2.048-7.168a71.68 71.68 0 0 1 16.384-26.624l5.12-5.12-8.192-15.36a15.36 15.36 0 1 1 26.624-14.336l9.216 16.384h7.168a71.68 71.68 0 0 1 29.696 1.024l7.168 2.048 9.216-15.36a14.336 14.336 0 0 1 9.216-7.168 15.36 15.36 0 0 1 16.384 22.528l-9.216 14.336 5.12 6.144a72.704 72.704 0 0 1 9.216 13.312 73.728 73.728 0 0 1 6.144 14.336l2.048 7.168h18.432a15.36 15.36 0 0 1 14.336 15.36 14.336 14.336 0 0 1-5.12 10.24 14.336 14.336 0 0 1-10.24 4.096h-19.456l-2.048 7.168a71.68 71.68 0 0 1-16.384 25.6l-5.12 5.12 9.216 16.384a15.36 15.36 0 1 1-26.624 14.336l-9.216-16.384h-7.168a72.704 72.704 0 0 1-31.744-1.024l-7.168-2.048-10.24 16.384a15.36 15.36 0 0 1-25.6-15.36l10.24-17.408-5.12-6.144-8.192-12.288a73.728 73.728 0 0 1-6.144-14.336l-2.048-7.168h-17.408a15.36 15.36 0 0 1-14.336-15.36 14.336 14.336 0 0 1 4.096-9.216z" p-id="6664"></path></svg>