<?xml version="1.0" standalone="no"?><!DOCTYPE svg PUBLIC "-//W3C//DTD SVG 1.1//EN" "http://www.w3.org/Graphics/SVG/1.1/DTD/svg11.dtd"><svg t="1575101135572" class="icon" viewBox="0 0 1024 1024" version="1.1" xmlns="http://www.w3.org/2000/svg" p-id="2007" xmlns:xlink="http://www.w3.org/1999/xlink" width="200" height="200"><defs><style type="text/css"></style></defs><path d="M49.152 753.664c-8.192 118.784 75.776 215.04 195.584 223.232s231.424-74.752 239.616-193.536c1.024-10.24 1.024-19.456 0-29.696v-215.04H267.264c-118.784 1.024-218.112 97.28-218.112 215.04z m403.456 0C453.632 867.328 368.64 943.104 266.24 943.104c-110.592 1.024-184.32-68.608-184.32-187.392 0-102.4 81.92-185.344 184.32-186.368H452.608v184.32zM267.264 54.272C148.48 46.08 53.248 135.168 45.056 253.952S132.096 481.28 237.568 485.376c10.24 0 19.456 1.024 29.696 0h216.064v-215.04c0-119.808-96.256-216.064-216.064-216.064z m185.344 400.384H267.264C164.864 454.656 81.92 371.712 81.92 269.312S156.672 86.016 259.072 86.016s193.536 80.896 193.536 183.296v185.344zM971.776 270.336c0-120.832-84.992-207.872-215.04-207.872-119.808 0-208.896 71.68-216.064 207.872v215.04h216.064c118.784-1.024 214.016-96.256 215.04-215.04z m-400.384 0c-1.024-102.4 82.944-174.08 185.344-175.104 101.376 0 179.2 68.608 180.224 171.008S860.16 453.632 757.76 454.656H571.392v-184.32zM756.736 538.624H540.672v215.04c0 119.808 96.256 216.064 216.064 216.064 32.768 0 65.536-8.192 95.232-22.528 7.168-4.096 10.24-13.312 6.144-20.48s-12.288-10.24-19.456-7.168c-25.6 12.288-53.248 19.456-81.92 19.456-102.4 0-185.344-82.944-185.344-185.344v-184.32h185.344c101.376 1.024 183.296 82.944 184.32 184.32 0 29.696-7.168 58.368-20.48 84.992-4.096 7.168-1.024 17.408 7.168 20.48 7.168 4.096 17.408 1.024 20.48-6.144 54.272-106.496 12.288-236.544-94.208-290.816-29.696-15.36-63.488-23.552-97.28-23.552z" p-id="2008"></path></svg>