<?xml version="1.0" standalone="no"?><!DOCTYPE svg PUBLIC "-//W3C//DTD SVG 1.1//EN" "http://www.w3.org/Graphics/SVG/1.1/DTD/svg11.dtd"><svg t="1575101453596" class="icon" viewBox="0 0 1024 1024" version="1.1" xmlns="http://www.w3.org/2000/svg" p-id="6785" xmlns:xlink="http://www.w3.org/1999/xlink" width="200" height="200"><defs><style type="text/css"></style></defs><path d="M943.454707 267.512172H627.060319v-28.760987c0-31.741872-25.815917-57.52709-57.52709-57.527089H80.543247c-31.724475 0-57.52402 25.785218-57.52402 57.527089v316.393365c0 31.712196 25.799544 57.526066 57.52402 57.526066h86.292169v57.52709c0 31.739825 25.853779 57.526066 57.693888 57.526066 13.496358 0 26.151561-8.454539 36.669081-17.246768l117.384243-97.806388h75.883119v57.52709c0 31.713219 25.799544 57.526066 57.53937 57.526066h133.25569l117.523412 99.744526c11.011776 9.156526 23.397849 15.30863 36.852252 15.30863 8.316393 0 17.556829-3.229548 25.505856-6.936979 19.719071-9.271136 32.022257-28.652516 32.022257-50.644346v-57.470808h86.290123c31.712196 0 57.525043-25.812847 57.525043-57.526066V325.039261c0-31.739825-25.812847-57.52709-57.525043-57.527089zM341.745725 568.488436L224.361482 666.2938v-53.622161c0-31.741872-25.801591-57.526066-57.526066-57.526066H80.543247V238.751185h488.989982v316.393365H378.582628c-13.42575 0-26.54451 4.748131-36.836903 13.343886z m601.708982 101.70927h-86.290123c-31.741872 0-57.528113 25.786241-57.528113 57.526066l0.170892 55.729144-117.299308-99.604333a57.721517 57.721517 0 0 0-37.246225-13.650877H512.00614v-57.52709h57.527089c31.711172 0 57.52709-25.813871 57.52709-57.526066V325.039261h316.394388v345.158445z" p-id="6786"></path></svg>