<?xml version="1.0" standalone="no"?><!DOCTYPE svg PUBLIC "-//W3C//DTD SVG 1.1//EN" "http://www.w3.org/Graphics/SVG/1.1/DTD/svg11.dtd"><svg t="1575101471839" class="icon" viewBox="0 0 1024 1024" version="1.1" xmlns="http://www.w3.org/2000/svg" p-id="7265" xmlns:xlink="http://www.w3.org/1999/xlink" width="200" height="200"><defs><style type="text/css"></style></defs><path d="M502.57535 73.840752c-129.859603 0-235.129158 105.270579-235.129158 235.129158s105.268532 235.129158 235.129158 235.129158c129.854487 0 235.124042-105.270579 235.124042-235.129158S632.428813 73.840752 502.57535 73.840752L502.57535 73.840752zM504.219803 497.072009c-103.882975 0-188.101075-84.219123-188.101075-188.102099 0-103.888092 84.2181-188.102099 188.101075-188.102099 103.883999 0 188.102099 84.214007 188.102099 188.102099C692.321902 412.852886 608.104825 497.072009 504.219803 497.072009L504.219803 497.072009zM504.219803 497.072009" p-id="7266"></path><path d="M112.574938 947.115935c0.561795-220.274846 179.294502-398.677025 399.699308-398.677025 220.408899 0 399.142629 178.402179 399.703401 398.677025l48.484248 0c-0.560772-247.052722-200.99985-447.160249-448.187649-447.160249-247.183705 0-447.622784 200.107527-448.183556 447.160249L112.574938 947.115935 112.574938 947.115935zM112.574938 947.115935" p-id="7267"></path></svg>