<?xml version="1.0" standalone="no"?><!DOCTYPE svg PUBLIC "-//W3C//DTD SVG 1.1//EN" "http://www.w3.org/Graphics/SVG/1.1/DTD/svg11.dtd"><svg t="1575101141510" class="icon" viewBox="0 0 1024 1024" version="1.1" xmlns="http://www.w3.org/2000/svg" p-id="2118" xmlns:xlink="http://www.w3.org/1999/xlink" width="200" height="200"><defs><style type="text/css"></style></defs><path d="M933.888 481.28a421.888 421.888 0 1 0-527.36 408.576l-36.864 44.032H225.28v30.72h573.44v-30.72H662.528l-40.96-45.056A422.912 422.912 0 0 0 933.888 481.28z m-813.056 0A391.168 391.168 0 1 1 512 872.448 392.192 392.192 0 0 1 120.832 481.28z m499.712 452.608H409.6l30.72-36.864a416.768 416.768 0 0 0 147.456-1.024z" p-id="2119"></path><path d="M670.72 481.28a152.576 152.576 0 1 0-152.576 152.576A152.576 152.576 0 0 0 670.72 481.28z m-274.432 0a121.856 121.856 0 1 1 121.856 121.856A121.856 121.856 0 0 1 396.288 481.28z" p-id="2120"></path><path d="M519.168 192.512m-29.696 0a29.696 29.696 0 1 0 59.392 0 29.696 29.696 0 1 0-59.392 0Z" p-id="2121"></path></svg>