<?xml version="1.0" standalone="no"?><!DOCTYPE svg PUBLIC "-//W3C//DTD SVG 1.1//EN" "http://www.w3.org/Graphics/SVG/1.1/DTD/svg11.dtd"><svg t="1575101161954" class="icon" viewBox="0 0 1024 1024" version="1.1" xmlns="http://www.w3.org/2000/svg" p-id="2581" xmlns:xlink="http://www.w3.org/1999/xlink" width="200" height="200"><defs><style type="text/css"></style></defs><path d="M750.592 312.32H152.576a99.328 99.328 0 0 0-99.328 99.328v219.136a99.328 99.328 0 0 0 99.328 99.328h98.304l59.392 115.712 64.512-115.712h375.808a99.328 99.328 0 0 0 99.328-99.328V412.672a99.328 99.328 0 0 0-99.328-100.352z m68.608 317.44a68.608 68.608 0 0 1-68.608 68.608H356.352l-45.056 80.896-40.96-80.896H152.576a68.608 68.608 0 0 1-68.608-68.608V412.672a68.608 68.608 0 0 1 68.608-68.608h598.016a68.608 68.608 0 0 1 68.608 68.608z" p-id="2582"></path><path d="M871.424 195.584H273.408a99.328 99.328 0 0 0-99.328 99.328v15.36h30.72v-15.36a68.608 68.608 0 0 1 68.608-68.608h598.016a68.608 68.608 0 0 1 68.608 68.608v218.112a68.608 68.608 0 0 1-68.608 68.608h-17.408v30.72h17.408a99.328 99.328 0 0 0 99.328-99.328V294.912a99.328 99.328 0 0 0-99.328-99.328zM253.952 461.824a59.392 59.392 0 1 0 59.392 59.392 59.392 59.392 0 0 0-59.392-59.392z m0 88.064a28.672 28.672 0 1 1 28.672-28.672 28.672 28.672 0 0 1-28.672 28.672zM451.584 461.824a59.392 59.392 0 1 0 59.392 59.392 59.392 59.392 0 0 0-59.392-59.392z m0 88.064a28.672 28.672 0 1 1 28.672-28.672 28.672 28.672 0 0 1-28.672 28.672z" p-id="2583"></path><path d="M649.216 461.824a59.392 59.392 0 1 0 59.392 59.392 59.392 59.392 0 0 0-59.392-59.392z m0 88.064a28.672 28.672 0 1 1 28.672-28.672 28.672 28.672 0 0 1-28.672 28.672z" p-id="2584"></path></svg>