<?xml version="1.0" standalone="no"?><!DOCTYPE svg PUBLIC "-//W3C//DTD SVG 1.1//EN" "http://www.w3.org/Graphics/SVG/1.1/DTD/svg11.dtd"><svg t="1575101181781" class="icon" viewBox="0 0 1024 1024" version="1.1" xmlns="http://www.w3.org/2000/svg" p-id="3030" xmlns:xlink="http://www.w3.org/1999/xlink" width="200" height="200"><defs><style type="text/css"></style></defs><path d="M552.96 101.376V430.08h328.704V101.376zM850.944 399.36H583.68V132.096h267.264zM142.336 922.624H471.04V593.92H142.336z m30.72-297.984H440.32v267.264H173.056zM474.112 249.856a220.16 220.16 0 0 0-220.16 220.16h-74.752l90.112 111.616L359.424 471.04h-74.752a189.44 189.44 0 0 1 189.44-190.464 15.36 15.36 0 0 0 0-30.72zM757.76 453.632l-90.112 111.616h74.752A189.44 189.44 0 0 1 552.96 756.736a15.36 15.36 0 0 0 0 30.72 220.16 220.16 0 0 0 220.16-220.16h74.752z" p-id="3031"></path></svg>