<svg class="icon" viewBox="0 0 1024 1024" xmlns="http://www.w3.org/2000/svg" width="200" height="200"><defs><style/></defs><path d="M62.464 404.48l441.344 270.336 8.192 2.048 8.192-2.048L961.536 404.48a15.36 15.36 0 0 0 0-26.624L520.192 108.544a15.36 15.36 0 0 0-16.384 0L62.464 377.856a15.36 15.36 0 0 0 0 26.624zM512 139.264l411.648 251.904L512 643.072 100.352 391.168z"/><path d="M961.536 619.52l-149.504-91.136a15.36 15.36 0 0 0-16.384 26.624l128 77.824L512 884.736 100.352 632.832l128-77.824a15.36 15.36 0 1 0-16.384-26.624L62.464 619.52a15.36 15.36 0 0 0 0 26.624l441.344 269.312 8.192 2.048 8.192-2.048 441.344-269.312a15.36 15.36 0 0 0 0-26.624z"/></svg>