<svg class="icon" viewBox="0 0 1024 1024" xmlns="http://www.w3.org/2000/svg" width="200" height="200"><defs><style/></defs><path d="M717.824 181.248L512 62.464 307.2 181.248v236.544L512 536.576l204.8-118.784zm-30.72 219.136L512 500.736 337.92 400.384V198.656L512 98.304l174.08 100.352zM63.488 593.92v236.544l204.8 118.784 204.8-118.784V593.92l-204.8-118.784zm378.88 219.136l-174.08 100.352-174.08-100.352V611.328l174.08-100.352 174.08 100.352zm307.2-339.968l-204.8 118.784v236.544l204.8 118.784 204.8-118.784V591.872zm174.08 337.92L749.568 911.36l-174.08-100.352V609.28l174.08-100.352 174.08 100.352z"/></svg>