<svg class="icon" viewBox="0 0 1024 1024" xmlns="http://www.w3.org/2000/svg" width="200" height="200"><defs><style/></defs><path d="M875.52 266.24l17.408-11.264-12.288-17.408-16.384 12.288zM896 300.032l18.432-10.24-10.24-18.432-17.408 10.24zM242.688 165.888L230.4 149.504l-16.384 14.336 13.312 15.36zm685.056 206.848l19.456-6.144-7.168-19.456-19.456 7.168zM839.68 190.464l-15.36-14.336-14.336 15.36L824.32 204.8zm11.264 44.032l15.36-13.312-13.312-15.36-15.36 13.312zm62.464 101.376l18.432-8.192-9.216-18.432-18.432 9.216zM275.456 143.36l-11.264-17.408-17.408 11.264 12.288 16.384zm663.552 268.288l19.456-5.12-5.12-20.48-19.456 5.12zm-727.04-219.136l-14.336-15.36-15.36 14.336 14.336 14.336zM946.176 450.56l20.48-3.072-3.072-20.48-20.48 4.096zM583.68 58.368l-20.48-3.072-2.048 20.48 19.456 3.072zm366.592 432.128h20.48q-1.024-10.24-1.024-20.48l-20.48 2.048q0 8.192 1.024 18.432zM421.888 82.944l-4.096-20.48-20.48 5.12 5.12 19.456zm-38.912 10.24l-6.144-19.456-19.456 6.144 7.168 19.456zm-37.888 13.312L337.92 87.04l-19.456 8.192 8.192 18.432zm463.872 55.296l-16.384-13.312-12.288 16.384 15.36 12.288zM541.696 54.272h-20.48v20.48h19.456zm-40.96 19.456v-20.48h-20.48v20.48zM460.8 76.8l-2.048-20.48-20.48 3.072 3.072 20.48zm279.552 36.864l-18.432-10.24-9.216 18.432 17.408 9.216zm-36.864-18.432l-19.456-8.192-8.192 18.432 18.432 8.192zm71.68 40.96l-17.408-11.264-10.24 17.408 16.384 11.264zM664.576 78.848l-19.456-6.144-6.144 19.456 19.456 6.144zM309.248 122.88l-9.216-18.432-18.432 10.24 10.24 17.408zM624.64 66.56l-20.48-5.12-4.096 20.48 19.456 4.096zM75.776 552.96l-20.48 2.048 2.048 20.48 20.48-3.072q-1.024-10.24-2.048-19.456zm544.768 384l5.12 19.456 20.48-6.144L640 930.816zm-281.6 0l19.456 7.168 7.168-19.456-18.432-7.168zm203.776 12.288v20.48l20.48-2.048-2.048-20.48zm153.6-38.912l8.192 18.432 18.432-9.216-9.216-18.432zm-36.864 14.336l7.168 19.456 19.456-7.168-8.192-19.456zm71.68-32.768l10.24 17.408 17.408-11.264-11.264-17.408zm-228.352 58.368v20.48h20.48v-20.48zm-83.968 11.264l20.48 4.096 3.072-20.48-19.456-3.072zm-39.936-10.24l20.48 5.12 5.12-19.456-19.456-5.12zm81.92 16.384l20.48 2.048v-20.48l-19.456-2.048zm120.832-22.528l3.072 20.48 20.48-4.096-4.096-20.48zm315.392-222.208l18.432 10.24 9.216-18.432-18.432-9.216zm17.408-35.84l18.432 8.192 8.192-19.456-19.456-8.192zm14.336-37.888l19.456 6.144 6.144-20.48-19.456-5.12zm10.24-37.888l19.456 4.096 4.096-20.48-20.48-4.096zM764.928 870.4l12.288 16.384 16.384-12.288-12.288-16.384zm181.248-299.008l20.48 3.072 2.048-20.48-20.48-2.048q-1.024 10.24-2.048 19.456zM796.672 845.824l13.312 15.36 15.36-14.336-14.336-15.36zm28.672-27.648l14.336 14.336 14.336-15.36-15.36-13.312zm50.176-61.44L892.928 768l11.264-17.408-17.408-10.24zm-23.552 31.744l15.36 13.312 13.312-16.384-16.384-12.288zm-681.984 29.696l14.336 15.36 14.336-14.336-13.312-14.336zM89.088 394.24l-19.456-5.12-5.12 20.48 19.456 4.096zm-8.192 38.912l-20.48-4.096-3.072 20.48 20.48 3.072zm-7.168 79.872h-20.48v20.48h20.48v-20.48zm2.048-39.936l-20.48-2.048q-1.024 10.24-1.024 20.48h20.48q0-8.192 1.024-18.432zm225.28 446.464l18.432 9.216 8.192-18.432-17.408-9.216zM184.32 221.184l-15.36-13.312-13.312 16.384 15.36 11.264zm-66.56 98.304l-18.432-9.216-9.216 19.456 18.432 8.192zm40.96-67.584l-16.384-12.288-12.288 17.408 17.408 11.264zm-21.504 32.768l-17.408-10.24-10.24 18.432L128 303.104zm-56.32 307.2l-20.48 4.096 4.096 20.48 19.456-5.12zm21.504-235.52l-19.456-7.168-7.168 19.456 19.456 6.144zm868.352 153.6h-20.48v21.504h20.48v-21.504zm-772.096 337.92l16.384 13.312 13.312-15.36-15.36-13.312zm31.744 26.624l16.384 12.288 12.288-16.384-16.384-12.288zm34.816 24.576l17.408 11.264 10.24-17.408-17.408-10.24zM118.784 705.536l-18.432 9.216 9.216 18.432L128 722.944zm-28.672-74.752l-19.456 5.12 6.144 20.48 19.456-6.144zm69.632 142.336l-16.384 12.288 13.312 16.384 15.36-13.312zM102.4 668.672l-19.456 7.168 8.192 19.456 18.432-8.192zm34.816 71.68l-17.408 10.24L131.072 768l17.408-11.264zM512 848.896a334.848 334.848 0 0 0 44.032-666.624h-2.048L512 180.224a334.848 334.848 0 1 0 0 669.696zM274.432 309.248a348.16 348.16 0 0 0 87.04 56.32 457.728 457.728 0 0 0-24.576 139.264H197.632a312.32 312.32 0 0 1 76.8-195.584zM501.76 200.704v175.104a322.56 322.56 0 0 1-113.664-22.528 471.04 471.04 0 0 1 96.256-151.552zm44.032 2.048a475.136 475.136 0 0 1 92.16 144.384 320.512 320.512 0 0 1-115.712 27.648v-174.08zm32.768 5.12a313.344 313.344 0 0 1 149.504 78.848 334.848 334.848 0 0 1-70.656 50.176 493.568 493.568 0 0 0-78.848-129.024zm-34.816 619.52H522.24v-174.08a325.632 325.632 0 0 1 115.712 27.648 446.464 446.464 0 0 1-94.208 146.432zM656.384 691.2a323.584 323.584 0 0 1 72.704 50.176 313.344 313.344 0 0 1-152.576 80.896 478.208 478.208 0 0 0 79.872-132.096zm-174.08 136.192a455.68 455.68 0 0 1-94.208-150.528 315.392 315.392 0 0 1 113.664-23.552v175.104zm19.456-194.56a336.896 336.896 0 0 0-121.856 24.576 445.44 445.44 0 0 1-23.552-132.096H501.76zm20.48 0V524.288h148.48a445.44 445.44 0 0 1-25.6 138.24 346.112 346.112 0 0 0-122.88-29.696zm0-129.024V395.264a340.992 340.992 0 0 0 122.88-29.696 434.176 434.176 0 0 1 25.6 138.24zm-20.48-107.52v107.52H356.352a434.176 434.176 0 0 1 23.552-131.072 345.088 345.088 0 0 0 121.856 23.552zm-165.888 128A470.016 470.016 0 0 0 360.448 665.6a359.424 359.424 0 0 0-84.992 55.296 312.32 312.32 0 0 1-77.824-196.608zm-46.08 211.968a349.184 349.184 0 0 1 78.848-51.2 480.256 480.256 0 0 0 81.92 137.216 314.368 314.368 0 0 1-160.768-86.016zm453.632-9.216a333.824 333.824 0 0 0-78.848-55.296 468.992 468.992 0 0 0 27.648-146.432h134.144a313.344 313.344 0 0 1-82.944 201.728zm82.944-222.208H691.2a457.728 457.728 0 0 0-27.648-147.456 348.16 348.16 0 0 0 77.824-55.296 313.344 313.344 0 0 1 84.992 201.728zm-373.76-299.008a492.544 492.544 0 0 0-83.968 139.264 336.896 336.896 0 0 1-79.872-51.2 313.344 313.344 0 0 1 163.84-88.064z"/></svg>