<svg class="icon" viewBox="0 0 1024 1024" xmlns="http://www.w3.org/2000/svg" width="200" height="200"><defs><style/></defs><path d="M358.4 737.28H203.776V399.36H358.4zM224.256 716.8H337.92V419.84H224.256zM588.8 737.28H435.2V136.192h153.6zM455.68 716.8h112.64V156.672H455.68zm367.616 20.48H668.672V279.552h154.624zM689.152 716.8h113.664V300.032H689.152z"/><path d="M527.36 966.656c-128 0-404.48-202.752-404.48-275.456V188.416c0-71.68 68.608-131.072 153.6-131.072h471.04c84.992 0 153.6 58.368 153.6 131.072V691.2c0 74.752-251.904 275.456-373.76 275.456zM276.48 77.824c-73.728 0-133.12 49.152-133.12 110.592V691.2c0 55.296 260.096 256 384 256s353.28-195.584 353.28-256V188.416c0-60.416-59.392-110.592-133.12-110.592z"/></svg>