<svg class="icon" viewBox="0 0 1024 1024" xmlns="http://www.w3.org/2000/svg" width="200" height="200"><defs><style/></defs><path d="M935.936 522.24c-33.792-47.104-88.064-69.632-155.648-63.488C757.76 301.056 660.48 214.016 505.856 214.016s-234.496 107.52-245.76 167.936h-2.048c-90.112 0-188.416 60.416-200.704 178.176a223.232 223.232 0 0 0 49.152 169.984c36.864 44.032 93.184 75.776 143.36 79.872h1.024l561.152-4.096a145.408 145.408 0 0 0 132.096-82.944c33.792-63.488 30.72-145.408-8.192-200.704zm-8.192 191.488a124.928 124.928 0 0 1-113.664 71.68l-561.152 4.096c-45.056-4.096-95.232-31.744-129.024-72.704a203.776 203.776 0 0 1-46.08-154.624c11.264-105.472 99.328-159.744 180.224-159.744h20.48v-10.24c5.12-50.176 68.608-158.72 226.304-158.72s235.52 81.92 254.976 237.568v10.24h10.24c81.92-11.264 124.928 22.528 146.432 53.248 36.864 48.128 39.936 121.856 10.24 179.2z"/><path d="M713.728 439.296h-455.68a32.768 32.768 0 0 0-32.768 32.768v31.744a32.768 32.768 0 0 0 32.768 32.768h455.68a32.768 32.768 0 0 0 32.768-32.768v-31.744a32.768 32.768 0 0 0-32.768-32.768zm12.288 64.512a12.288 12.288 0 0 1-12.288 12.288h-455.68a12.288 12.288 0 0 1-12.288-12.288v-31.744a12.288 12.288 0 0 1 12.288-12.288h455.68a12.288 12.288 0 0 1 12.288 12.288zm-12.288 47.104h-455.68a32.768 32.768 0 0 0-32.768 32.768v30.72a32.768 32.768 0 0 0 32.768 32.768h455.68a32.768 32.768 0 0 0 32.768-32.768v-30.72a32.768 32.768 0 0 0-32.768-32.768zm12.288 63.488a12.288 12.288 0 0 1-12.288 12.288h-455.68A12.288 12.288 0 0 1 245.76 614.4v-30.72a12.288 12.288 0 0 1 12.288-12.288h455.68a12.288 12.288 0 0 1 12.288 12.288zm-12.288 47.104h-455.68a32.768 32.768 0 0 0-32.768 32.768v31.744a32.768 32.768 0 0 0 32.768 32.768h455.68a32.768 32.768 0 0 0 32.768-32.768v-31.744a32.768 32.768 0 0 0-32.768-32.768zm12.288 64.512a12.288 12.288 0 0 1-12.288 12.288h-455.68a12.288 12.288 0 0 1-12.288-12.288v-31.744a12.288 12.288 0 0 1 12.288-12.288h455.68a12.288 12.288 0 0 1 12.288 12.288z"/><path d="M665.6 487.424a14.336 14.336 0 1 0 28.672 0 14.336 14.336 0 1 0-28.672 0zM619.52 487.424a14.336 14.336 0 1 0 28.672 0 14.336 14.336 0 1 0-28.672 0zM324.608 599.04a14.336 14.336 0 1 0 28.672 0 14.336 14.336 0 1 0-28.672 0zM279.55199999999996 599.04a14.336 14.336 0 1 0 28.672 0 14.336 14.336 0 1 0-28.672 0zM665.6 710.656a14.336 14.336 0 1 0 28.672 0 14.336 14.336 0 1 0-28.672 0zM619.52 710.656a14.336 14.336 0 1 0 28.672 0 14.336 14.336 0 1 0-28.672 0z"/></svg>