<svg class="icon" viewBox="0 0 1024 1024" xmlns="http://www.w3.org/2000/svg" width="200" height="200"><defs><style/></defs><path d="M54.272 177.152v669.696h915.456V177.152zm894.976 649.216H74.752V197.632h874.496z"/><path d="M179.2 719.872h20.48a154.624 154.624 0 0 1 310.272 0h20.48A176.128 176.128 0 0 0 408.576 552.96a130.048 130.048 0 1 0-107.52 0A176.128 176.128 0 0 0 179.2 719.872zM245.76 435.2a109.568 109.568 0 1 1 109.568 109.568A109.568 109.568 0 0 1 245.76 435.2zm345.088 180.224H870.4v20.48H590.848zm0-174.08H870.4v20.48H590.848z"/></svg>