<svg class="icon" viewBox="0 0 1024 1024" xmlns="http://www.w3.org/2000/svg" width="200" height="200"><defs><style/></defs><path d="M512 249.856A262.144 262.144 0 1 0 774.144 512 263.168 263.168 0 0 0 512 249.856zm0 494.592A231.424 231.424 0 1 1 743.424 512 232.448 232.448 0 0 1 512 743.424z"/><path d="M892.928 376.832h-46.08l-2.048-5.12 32.768-32.768a72.704 72.704 0 0 0 0-103.424l-89.088-88.064a72.704 72.704 0 0 0-103.424 0l-32.768 32.768-5.12-2.048v-47.104a72.704 72.704 0 0 0-72.704-72.704H449.536a72.704 72.704 0 0 0-72.704 72.704v46.08l-5.12 2.048-32.768-32.768a72.704 72.704 0 0 0-103.424 0l-88.064 89.088a72.704 72.704 0 0 0 0 103.424l32.768 32.768-2.048 5.12h-47.104a72.704 72.704 0 0 0-72.704 72.704v124.928a72.704 72.704 0 0 0 72.704 72.704h46.08l2.048 5.12-32.768 32.768a72.704 72.704 0 0 0 0 103.424l89.088 88.064a72.704 72.704 0 0 0 103.424 0l32.768-32.768 5.12 2.048v46.08a72.704 72.704 0 0 0 72.704 72.704h124.928a72.704 72.704 0 0 0 72.704-72.704v-45.056l5.12-2.048 32.768 32.768a72.704 72.704 0 0 0 103.424 0l88.064-89.088a72.704 72.704 0 0 0 0-103.424l-32.768-32.768 2.048-5.12h46.08a72.704 72.704 0 0 0 72.704-72.704V449.536a72.704 72.704 0 0 0-71.68-72.704zm41.984 198.656a41.984 41.984 0 0 1-41.984 41.984h-67.584l-4.096 10.24-9.216 22.528-4.096 9.216 47.104 47.104a41.984 41.984 0 0 1 0 59.392l-89.088 89.088a41.984 41.984 0 0 1-59.392 0l-47.104-47.104-9.216 4.096-22.528 9.216-10.24 4.096v67.584a41.984 41.984 0 0 1-41.984 41.984H449.536a41.984 41.984 0 0 1-41.984-41.984v-67.584l-10.24-4.096-22.528-9.216-9.216-4.096-48.128 47.104a41.984 41.984 0 0 1-59.392 0l-89.088-89.088a41.984 41.984 0 0 1 0-59.392l47.104-47.104-4.096-9.216-9.216-22.528-4.096-10.24h-67.584a41.984 41.984 0 0 1-41.984-41.984V449.536a41.984 41.984 0 0 1 41.984-41.984h67.584l4.096-10.24 9.216-22.528 4.096-9.216-47.104-48.128a41.984 41.984 0 0 1 0-59.392l89.088-89.088a41.984 41.984 0 0 1 59.392 0l47.104 47.104 9.216-4.096 22.528-9.216 10.24-4.096v-67.584a41.984 41.984 0 0 1 41.984-41.984h125.952a41.984 41.984 0 0 1 41.984 41.984v67.584l10.24 4.096 22.528 9.216 9.216 4.096 48.128-47.104a41.984 41.984 0 0 1 59.392 0l89.088 89.088a41.984 41.984 0 0 1 0 59.392l-47.104 47.104 4.096 9.216 9.216 22.528 4.096 10.24h67.584a41.984 41.984 0 0 1 41.984 41.984z"/></svg>