<svg class="icon" viewBox="0 0 1024 1024" xmlns="http://www.w3.org/2000/svg" width="200" height="200"><defs><style/></defs><path d="M412.672 464.896H97.28a35.84 35.84 0 0 1-35.84-35.84V112.64A35.84 35.84 0 0 1 97.28 76.8h315.392a35.84 35.84 0 0 1 35.84 35.84v316.416a35.84 35.84 0 0 1-35.84 35.84zM97.28 97.28a15.36 15.36 0 0 0-15.36 15.36v316.416a15.36 15.36 0 0 0 15.36 15.36h315.392a15.36 15.36 0 0 0 15.36-15.36V112.64a15.36 15.36 0 0 0-15.36-15.36zm829.44 367.616H611.328a35.84 35.84 0 0 1-35.84-35.84V112.64a35.84 35.84 0 0 1 35.84-35.84H926.72a35.84 35.84 0 0 1 35.84 35.84v316.416a35.84 35.84 0 0 1-35.84 35.84zM611.328 97.28a15.36 15.36 0 0 0-15.36 15.36v316.416a15.36 15.36 0 0 0 15.36 15.36H926.72a15.36 15.36 0 0 0 15.36-15.36V112.64a15.36 15.36 0 0 0-15.36-15.36zM926.72 947.2H611.328a35.84 35.84 0 0 1-35.84-35.84V594.944a35.84 35.84 0 0 1 35.84-35.84H926.72a35.84 35.84 0 0 1 35.84 35.84V911.36a35.84 35.84 0 0 1-35.84 35.84zM611.328 579.584a15.36 15.36 0 0 0-15.36 15.36V911.36a15.36 15.36 0 0 0 15.36 15.36H926.72a15.36 15.36 0 0 0 15.36-15.36V594.944a15.36 15.36 0 0 0-15.36-15.36zM412.672 947.2H97.28a35.84 35.84 0 0 1-35.84-35.84V594.944a35.84 35.84 0 0 1 35.84-35.84h315.392a35.84 35.84 0 0 1 35.84 35.84V911.36a35.84 35.84 0 0 1-35.84 35.84zM97.28 579.584a15.36 15.36 0 0 0-15.36 15.36V911.36a15.36 15.36 0 0 0 15.36 15.36h315.392a15.36 15.36 0 0 0 15.36-15.36V594.944a15.36 15.36 0 0 0-15.36-15.36z"/></svg>