<svg class="icon" viewBox="0 0 1024 1024" xmlns="http://www.w3.org/2000/svg" width="200" height="200"><defs><style/></defs><path d="M752.64 717.824a121.856 121.856 0 0 0-107.52 65.536L379.904 619.52a120.832 120.832 0 0 0-20.48-134.144L557.056 271.36A122.88 122.88 0 1 0 543.744 256L345.088 471.04a120.832 120.832 0 1 0 24.576 165.888l267.264 165.888a121.856 121.856 0 1 0 115.712-84.992zM642.048 83.968A101.376 101.376 0 1 1 540.672 184.32 101.376 101.376 0 0 1 642.048 83.968zM271.36 667.648a101.376 101.376 0 1 1 101.376-101.376A101.376 101.376 0 0 1 271.36 667.648zm481.28 272.384A101.376 101.376 0 1 1 854.016 839.68 101.376 101.376 0 0 1 752.64 940.032z"/></svg>