<svg class="icon" viewBox="0 0 1024 1024" xmlns="http://www.w3.org/2000/svg" width="200" height="200"><defs><style/></defs><path d="M961.536 748.544v-588.8a10.24 10.24 0 0 0-20.48 0v568.32H82.944v-558.08h735.232a10.24 10.24 0 0 0 0-20.48H62.464v599.04H501.76v105.472H314.368a10.24 10.24 0 1 0 0 20.48h395.264a10.24 10.24 0 0 0 0-20.48H522.24V748.544z"/><path d="M686.08 413.696C670.72 315.392 609.28 261.12 512 261.12s-146.432 65.536-155.648 105.472a126.976 126.976 0 0 0-126.976 113.664A143.36 143.36 0 0 0 261.12 588.8a141.312 141.312 0 0 0 92.16 51.2h1.024l349.184-2.048a94.208 94.208 0 0 0 86.016-53.248 129.024 129.024 0 0 0-6.144-129.024c-21.504-29.696-55.296-45.056-97.28-41.984zm84.992 160.768a74.752 74.752 0 0 1-67.584 43.008l-349.184 2.048a120.832 120.832 0 0 1-77.824-43.008 122.88 122.88 0 0 1-26.624-93.184A106.496 106.496 0 0 1 358.4 387.072h16.384v-10.24C376.832 358.4 406.528 281.6 512 281.6c90.112 0 143.36 50.176 154.624 144.384v10.24h10.24c49.152-6.144 74.752 13.312 87.04 31.744a107.52 107.52 0 0 1 7.168 107.52z"/></svg>