<svg class="icon" viewBox="0 0 1024 1024" xmlns="http://www.w3.org/2000/svg" width="200" height="200"><defs><style/></defs><path d="M362.496 119.808H100.352a29.696 29.696 0 0 0-29.696 29.696v262.144a29.696 29.696 0 0 0 29.696 29.696h262.144a29.696 29.696 0 0 0 29.696-29.696V149.504a29.696 29.696 0 0 0-29.696-29.696zm9.216 292.864a9.216 9.216 0 0 1-9.216 9.216H100.352a9.216 9.216 0 0 1-9.216-9.216V149.504a9.216 9.216 0 0 1 9.216-9.216h262.144a9.216 9.216 0 0 1 9.216 9.216zm-9.216 168.96H100.352a29.696 29.696 0 0 0-29.696 29.696v263.168a29.696 29.696 0 0 0 29.696 29.696h262.144a29.696 29.696 0 0 0 29.696-29.696V612.352a29.696 29.696 0 0 0-29.696-30.72zm9.216 292.864a9.216 9.216 0 0 1-9.216 9.216H100.352a9.216 9.216 0 0 1-9.216-9.216V612.352a9.216 9.216 0 0 1 9.216-9.216h262.144a9.216 9.216 0 0 1 9.216 9.216zM517.12 190.464h447.488v20.48H517.12zm0 163.84h447.488v20.48H517.12zm0 309.248h447.488v20.48H517.12zm0 152.576h447.488v20.48H517.12z"/></svg>