<svg class="icon" viewBox="0 0 1024 1024" xmlns="http://www.w3.org/2000/svg" width="200" height="200"><defs><style/></defs><path d="M874.496 846.848H655.36v-20.48h198.656V84.992H358.4v359.424h-20.48V64.512h536.576v782.336z"/><path d="M780.288 224.256H445.44a10.24 10.24 0 0 1 0-20.48h334.848a10.24 10.24 0 0 1 0 20.48zm0 88.064H445.44a10.24 10.24 0 0 1 0-20.48h334.848a10.24 10.24 0 0 1 0 20.48zm0 94.208H445.44a10.24 10.24 0 0 1 0-20.48h334.848a10.24 10.24 0 0 1 0 20.48zM390.144 813.056a94.208 94.208 0 1 1 94.208-94.208 94.208 94.208 0 0 1-94.208 94.208zm0-167.936a73.728 73.728 0 1 0 73.728 73.728 73.728 73.728 0 0 0-73.728-73.728z"/><path d="M452.608 959.488H327.68V885.76l-11.264-4.096-52.224 52.224-88.064-88.064 52.224-52.224-4.096-11.264h-74.752V656.384h73.728l4.096-11.264-52.224-52.224 88.064-89.088 52.224 52.224 12.288-3.072v-74.752h124.928v74.752l11.264 4.096 52.224-52.224 88.064 88.064-52.224 52.224 4.096 11.264h74.752v125.952h-73.728L552.96 793.6l51.2 51.2-88.064 88.064-52.224-52.224-11.264 4.096zm-104.448-20.48h83.968v-67.584l7.168-2.048 21.504-9.216 7.168-3.072 48.128 48.128 59.392-59.392-48.128-48.128 3.072-6.144a151.552 151.552 0 0 0 9.216-21.504l2.048-7.168h68.608v-86.016h-68.608l-2.048-7.168a142.336 142.336 0 0 0-9.216-21.504l-3.072-7.168 48.128-48.128-59.392-59.392-48.128 48.128-7.168-3.072-21.504-9.216-7.168-2.048v-68.608H348.16v68.608l-7.168 2.048-21.504 9.216-7.168 3.072-48.128-48.128-59.392 59.392 48.128 48.128-3.072 7.168a144.384 144.384 0 0 0-9.216 21.504l-2.048 7.168h-68.608v83.968h68.608L240.64 768a151.552 151.552 0 0 0 9.216 21.504l3.072 6.144L204.8 844.8l59.392 59.392 48.128-48.128 7.168 3.072 21.504 9.216 7.168 2.048z"/></svg>