<svg class="icon" viewBox="0 0 1024 1024" xmlns="http://www.w3.org/2000/svg" width="200" height="200"><defs><style/></defs><path d="M884.736 179.2h-93.184v-40.96h-39.936V63.488H651.264v74.752h-39.936v39.936h-93.184a35.84 35.84 0 0 0-35.84 35.84v74.752a10.24 10.24 0 1 0 20.48 0v-74.752a15.36 15.36 0 0 1 15.36-15.36h93.184v52.224h180.224v-51.2h93.184a15.36 15.36 0 0 1 15.36 15.36v577.536a15.36 15.36 0 0 1-15.36 15.36H563.2a10.24 10.24 0 0 0 0 20.48h321.536a35.84 35.84 0 0 0 35.84-35.84v-578.56a35.84 35.84 0 0 0-35.84-34.816zM671.744 83.968h60.416v54.272h-60.416zM772.096 230.4H631.808v-71.68h139.264z"/><path d="M821.248 346.112a10.24 10.24 0 1 0 0-20.48H578.56a10.24 10.24 0 0 0 0 20.48zM563.2 435.2a10.24 10.24 0 0 0 10.24 10.24h242.688a10.24 10.24 0 0 0 0-20.48H573.44a10.24 10.24 0 0 0-10.24 10.24zm10.24 109.568h242.688a10.24 10.24 0 0 0 0-20.48H573.44a10.24 10.24 0 0 0 0 20.48zm0 106.496h242.688a10.24 10.24 0 0 0 0-20.48H573.44a10.24 10.24 0 0 0 0 20.48zm-67.584-340.992h-93.184v-39.936h-39.936v-74.752H272.384v74.752h-39.936v39.936h-93.184a35.84 35.84 0 0 0-35.84 35.84v578.56a35.84 35.84 0 0 0 35.84 35.84h366.592a35.84 35.84 0 0 0 35.84-35.84v-578.56a35.84 35.84 0 0 0-35.84-35.84zm-212.992-94.208h60.416v54.272h-60.416zm-39.936 74.752h139.264v71.68H252.928zm268.288 633.856a15.36 15.36 0 0 1-15.36 15.36H139.264a15.36 15.36 0 0 1-15.36-15.36v-578.56a15.36 15.36 0 0 1 15.36-15.36h93.184v52.224h180.224v-52.224h93.184a15.36 15.36 0 0 1 15.36 15.36z"/><path d="M441.344 457.728H198.656a10.24 10.24 0 0 0 0 20.48h242.688a10.24 10.24 0 0 0 0-20.48zm-4.096 99.328H194.56a10.24 10.24 0 1 0 0 20.48h242.688a10.24 10.24 0 0 0 0-20.48zm0 99.328H194.56a10.24 10.24 0 0 0 0 20.48h242.688a10.24 10.24 0 0 0 0-20.48zm0 105.472H194.56a10.24 10.24 0 0 0 0 20.48h242.688a10.24 10.24 0 0 0 0-20.48z"/></svg>