<svg class="icon" viewBox="0 0 1024 1024" xmlns="http://www.w3.org/2000/svg" width="200" height="200"><defs><style/></defs><path d="M861.184 414.72h-10.24A348.16 348.16 0 0 0 609.28 165.888v-4.096a97.28 97.28 0 0 0-195.584 0v4.096A348.16 348.16 0 0 0 174.08 414.72h-11.264a97.28 97.28 0 1 0 0 195.584H179.2a350.208 350.208 0 0 0 237.568 228.352 97.28 97.28 0 1 0 189.44 0 350.208 350.208 0 0 0 238.592-230.4l16.384 2.048a97.28 97.28 0 0 0 0-195.584zM512 84.992a76.8 76.8 0 1 1-76.8 76.8 77.824 77.824 0 0 1 76.8-76.8zM162.816 588.8a76.8 76.8 0 1 1 76.8-76.8 77.824 77.824 0 0 1-76.8 76.8zM512 939.008a76.8 76.8 0 1 1 76.8-76.8 77.824 77.824 0 0 1-76.8 76.8zM600.064 819.2a97.28 97.28 0 0 0-176.128 0 329.728 329.728 0 0 1-225.28-216.064 97.28 97.28 0 0 0-5.12-183.296 327.68 327.68 0 0 1 224.256-233.472 97.28 97.28 0 0 0 189.44 0A327.68 327.68 0 0 1 830.464 419.84a97.28 97.28 0 0 0-5.12 183.296A328.704 328.704 0 0 1 600.064 819.2zm261.12-230.4l-20.48-3.072h-4.096a77.824 77.824 0 1 1 24.576 4.096z"/><path d="M512 703.488A159.744 159.744 0 0 1 506.88 384v41.984l92.16-53.248-92.16-53.248v44.032a180.224 180.224 0 1 0 185.344 180.224h-20.48A159.744 159.744 0 0 1 512 703.488z"/></svg>