<svg class="icon" viewBox="0 0 1024 1024" xmlns="http://www.w3.org/2000/svg" width="200" height="200"><defs><style/></defs><path d="M917.504 71.68H453.632a34.816 34.816 0 0 0-34.816 34.816v227.328a34.816 34.816 0 0 0 34.816 34.816h463.872a34.816 34.816 0 0 0 34.816-34.816V106.496a34.816 34.816 0 0 0-34.816-34.816zm14.336 262.144a14.336 14.336 0 0 1-14.336 14.336H453.632a14.336 14.336 0 0 1-14.336-14.336V106.496a14.336 14.336 0 0 1 14.336-14.336h463.872a14.336 14.336 0 0 1 14.336 14.336zm-825.344 271.36h227.328a34.816 34.816 0 0 0 34.816-34.816V106.496a34.816 34.816 0 0 0-34.816-34.816H106.496a34.816 34.816 0 0 0-34.816 34.816v463.872a34.816 34.816 0 0 0 34.816 34.816zM92.16 106.496a14.336 14.336 0 0 1 14.336-14.336h227.328a14.336 14.336 0 0 1 14.336 14.336v463.872a14.336 14.336 0 0 1-14.336 14.336H106.496a14.336 14.336 0 0 1-14.336-14.336zM570.368 655.36H106.496a34.816 34.816 0 0 0-34.816 34.816v227.328a34.816 34.816 0 0 0 34.816 34.816h463.872a34.816 34.816 0 0 0 34.816-34.816V690.176a34.816 34.816 0 0 0-34.816-34.816zm14.336 262.144a14.336 14.336 0 0 1-14.336 14.336H106.496a14.336 14.336 0 0 1-14.336-14.336V690.176a14.336 14.336 0 0 1 14.336-14.336h463.872a14.336 14.336 0 0 1 14.336 14.336zm332.8-498.688H690.176a34.816 34.816 0 0 0-34.816 34.816v463.872a34.816 34.816 0 0 0 34.816 34.816h227.328a34.816 34.816 0 0 0 34.816-34.816V453.632a34.816 34.816 0 0 0-34.816-34.816zm14.336 498.688a14.336 14.336 0 0 1-14.336 14.336H690.176a14.336 14.336 0 0 1-14.336-14.336V453.632a14.336 14.336 0 0 1 14.336-14.336h227.328a14.336 14.336 0 0 1 14.336 14.336zM591.872 512a84.992 84.992 0 1 0-84.992 84.992A84.992 84.992 0 0 0 591.872 512zm-149.504 0a64.512 64.512 0 1 1 64.512 64.512A64.512 64.512 0 0 1 442.368 512z"/></svg>