<svg class="icon" viewBox="0 0 1024 1024" xmlns="http://www.w3.org/2000/svg" width="200" height="200"><defs><style/></defs><path d="M276.48 144.384l-11.264-17.408-17.408 11.264 12.288 16.384zm33.792-19.456l-9.216-18.432-18.432 10.24 10.24 17.408zm35.84-16.384l-8.192-19.456-19.456 8.192 8.192 18.432zm75.776-23.552l-4.096-20.48-20.48 5.12 5.12 19.456zM384 95.232l-6.144-19.456-20.48 6.144 7.168 19.456zm-140.288 72.704l-12.288-16.384-16.384 13.312 13.312 15.36zM119.808 320.512l-18.432-9.216-9.216 19.456 18.432 8.192zm40.96-67.584l-16.384-12.288-12.288 17.408 17.408 11.264zm52.224-59.392l-14.336-15.36-14.336 15.36 14.336 14.336zM460.8 78.848l-2.048-20.48-20.48 3.072 3.072 20.48zM138.24 285.696l-17.408-10.24-10.24 18.432 18.432 10.24zm47.104-63.488l-15.36-13.312-13.312 15.36 16.384 13.312zM911.36 336.896l18.432-8.192-8.192-19.456-18.432 9.216zm-37.888-69.632L890.88 256l-12.288-17.408-16.384 12.288zm20.48 33.792l18.432-10.24-10.24-18.432-17.408 10.24zM91.136 395.264L71.68 389.12l-5.12 20.48 19.456 4.096zM849.92 235.52l15.36-13.312-13.312-15.36-15.36 13.312zm98.304 254.976h20.48q0-10.24-1.024-20.48l-20.48 2.048q0 8.192 1.024 18.432zm-4.096-39.936l20.48-3.072-3.072-20.48-20.48 4.096zM837.632 191.488l-15.36-14.336-13.312 15.36 14.336 14.336zm99.328 220.16l19.456-5.12-5.12-20.48-19.456 5.12zm-11.264-37.888l19.456-6.144-6.144-19.456-19.456 7.168zm-117.76-209.92l-16.384-13.312-13.312 16.384L793.6 179.2zm-184.32-95.232l-20.48-5.12-4.096 20.48 19.456 4.096zm-39.936-8.192l-20.48-3.072-2.048 20.48 19.456 3.072zm79.872 20.48l-19.456-6.144-6.144 19.456 18.432 6.144zM541.696 56.32h-20.48V76.8h19.456zm-40.96 19.456v-20.48h-20.48v20.48zm273.408 62.464l-17.408-11.264-10.24 16.384 16.384 11.264zm-71.68-41.984l-19.456-8.192-7.168 19.456 18.432 8.192zm36.864 19.456l-18.432-10.24-9.216 18.432 17.408 9.216zM103.424 357.376l-19.456-7.168-7.168 19.456 19.456 6.144zm555.008 566.272l7.168 19.456 19.456-7.168-8.192-19.456zm-37.888 11.264l5.12 19.456 20.48-5.12L640 929.792zm109.568-45.056l10.24 17.408L757.76 896l-10.24-16.384zm-34.816 18.432l8.192 18.432 18.432-9.216-9.216-18.432zm-113.664 34.816l3.072 20.48 20.48-4.096-4.096-20.48zm-202.752 6.144l20.48 5.12 5.12-19.456-19.456-5.12zm40.96 10.24l20.48 4.096 3.072-20.48-19.456-3.072zm40.96 6.144l20.48 2.048V947.2l-19.456-2.048zm303.104-97.28l12.288 16.384 16.384-12.288-12.288-16.384zM541.696 947.2v20.48l20.48-2.048-2.048-20.48zm-38.912 1.024v20.48h20.48v-20.48zM926.72 649.216l19.456 6.144 6.144-20.48-19.456-5.12zm-14.336 36.864l18.432 8.192 8.192-19.456-19.456-7.168zm24.576-75.776l19.456 5.12 4.096-20.48-20.48-4.096zm31.744-100.352h-20.48v21.504h20.48v-20.48zm-24.576 61.44l20.48 3.072 2.048-20.48-20.48-2.048q0 9.216-2.048 19.456zM894.976 721.92l18.432 10.24 9.216-18.432-18.432-9.216zm-44.032 65.536l16.384 13.312 12.288-16.384-16.384-12.288zm-56.32 56.32l13.312 16.384 15.36-14.336-14.336-15.36zm29.696-26.624l14.336 14.336 14.336-15.36-15.36-13.312zm50.176-61.44l16.384 11.264 11.264-17.408-17.408-10.24zM92.16 630.784l-20.48 5.12 6.144 19.456 19.456-6.144zm69.632 141.312l-16.384 12.288 12.288 16.384 16.384-13.312zm-22.528-32.768l-17.408 10.24 11.264 17.408 17.408-11.264zm200.704 196.608l19.456 7.168 7.168-19.456-18.432-7.168zM77.824 552.96l-20.48 2.048 2.048 20.48 20.48-3.072q-2.048-10.24-2.048-19.456zm5.12-118.784l-20.48-4.096q-2.048 10.24-3.072 20.48l20.48 3.072zm36.864 270.336l-18.432 9.216 9.216 18.432 18.432-10.24zm-15.36-35.84l-19.456 7.168 8.192 19.456 18.432-8.192zm66.56 147.456l14.336 15.36 14.336-14.336-13.312-14.336zm95.232 80.896l17.408 11.264 10.24-17.408-17.408-10.24zm-33.792-23.552l16.384 12.288 12.288-16.384-16.384-12.288zm-31.744-27.648l15.36 14.336 13.312-15.36-15.36-13.312zm101.376 71.68l18.432 9.216 8.192-18.432-17.408-9.216zM76.8 473.088l-20.48-2.048q-1.024 10.24-1.024 20.48h20.48q1.024-8.192 1.024-18.432zm-1.024 39.936h-20.48v20.48h20.48v-20.48zm7.168 78.848l-20.48 4.096 4.096 20.48 19.456-5.12zm172.032 166.912h514.048a41.984 41.984 0 0 0 41.984-41.984V398.336a41.984 41.984 0 0 0-41.984-41.984H254.976a41.984 41.984 0 0 0-41.984 41.984v319.488a41.984 41.984 0 0 0 41.984 40.96zm-20.48-360.448A21.504 21.504 0 0 1 256 376.832h513.024a21.504 21.504 0 0 1 21.504 21.504v319.488a21.504 21.504 0 0 1-21.504 21.504H254.976a21.504 21.504 0 0 1-21.504-21.504zm29.696-87.04h496.64v20.48h-496.64zm32.768-47.104h431.104v20.48H296.96z"/><path d="M404.48 565.248a43.008 43.008 0 1 0-43.008-43.008 43.008 43.008 0 0 0 43.008 43.008zm0-64.512a22.528 22.528 0 1 1-22.528 21.504 22.528 22.528 0 0 1 22.528-22.528z"/><path d="M313.344 555.008h4.096l5.12 11.264 6.144 10.24-3.072 5.12a35.84 35.84 0 0 0 11.264 49.152 35.84 35.84 0 0 0 49.152-11.264l3.072-4.096a93.184 93.184 0 0 0 25.6 1.024l2.048 3.072a35.84 35.84 0 1 0 62.464-33.792l-2.048-3.072a92.16 92.16 0 0 0 13.312-20.48h4.096a34.816 34.816 0 0 0 25.6-9.216 35.84 35.84 0 0 0-23.552-61.44h-5.12l-5.12-11.264-7.168-11.264v-2.048a35.84 35.84 0 0 0-59.392-38.912l-2.048 3.072a91.136 91.136 0 0 0-23.552-1.024l-2.048-3.072a35.84 35.84 0 1 0-62.464 33.792l2.048 3.072a92.16 92.16 0 0 0-13.312 20.48h-4.096a35.84 35.84 0 0 0-25.6 9.216 35.84 35.84 0 0 0 23.552 61.44zm-9.216-46.08a14.336 14.336 0 0 1 10.24-4.096H332.8l2.048-7.168a71.68 71.68 0 0 1 16.384-26.624l5.12-5.12-8.192-16.384a15.36 15.36 0 0 1 6.144-20.48 15.36 15.36 0 0 1 20.48 6.144L384 451.584h7.168a71.68 71.68 0 0 1 29.696 1.024l7.168 2.048 9.216-15.36a15.36 15.36 0 0 1 20.48-5.12 15.36 15.36 0 0 1 5.12 20.48l-9.216 14.336 5.12 6.144a71.68 71.68 0 0 1 15.36 26.624l2.048 7.168h18.432a15.36 15.36 0 0 1 10.24 25.6 15.36 15.36 0 0 1-10.24 4.096h-19.456l-2.048 7.168a71.68 71.68 0 0 1-16.384 26.624l-5.12 5.12 9.216 16.384a15.36 15.36 0 0 1-6.144 20.48 15.36 15.36 0 0 1-20.48-6.144l-9.216-16.384h-7.168a71.68 71.68 0 0 1-31.744-1.024l-7.168-2.048-10.24 16.384a15.36 15.36 0 0 1-20.48 5.12 15.36 15.36 0 0 1-5.12-20.48l10.24-17.408-5.12-6.144-8.192-12.288a73.728 73.728 0 0 1-6.144-14.336l-2.048-7.168h-18.432a15.36 15.36 0 0 1-10.24-25.6zm315.392 128a43.008 43.008 0 1 0-41.984-43.008 43.008 43.008 0 0 0 41.984 43.008zm0-64.512a22.528 22.528 0 1 1-21.504 21.504 22.528 22.528 0 0 1 21.504-21.504z"/><path d="M494.592 590.848a35.84 35.84 0 0 0 34.816 36.864h3.072l5.12 11.264 6.144 10.24-3.072 5.12a35.84 35.84 0 0 0 60.416 36.864l3.072-5.12a92.16 92.16 0 0 0 25.6 1.024l2.048 3.072a35.84 35.84 0 1 0 62.464-33.792l-2.048-3.072a92.16 92.16 0 0 0 13.312-20.48h4.096a35.84 35.84 0 0 0 2.048-70.656h-5.12l-5.12-11.264-7.168-11.264V537.6a35.84 35.84 0 0 0-60.416-36.864l-2.048 3.072a92.16 92.16 0 0 0-23.552-1.024l-2.048-3.072a35.84 35.84 0 1 0-62.464 33.792l2.048 3.072a92.16 92.16 0 0 0-13.312 20.48h-4.096a35.84 35.84 0 0 0-36.864 34.816zm25.6-10.24a14.336 14.336 0 0 1 10.24-4.096h18.432l2.048-7.168a71.68 71.68 0 0 1 16.384-26.624l5.12-5.12-8.192-15.36a15.36 15.36 0 1 1 26.624-14.336l9.216 16.384h7.168a71.68 71.68 0 0 1 29.696 1.024l7.168 2.048 9.216-15.36a14.336 14.336 0 0 1 9.216-7.168 15.36 15.36 0 0 1 16.384 22.528l-9.216 14.336 5.12 6.144a72.704 72.704 0 0 1 9.216 13.312 73.728 73.728 0 0 1 6.144 14.336l2.048 7.168h18.432a15.36 15.36 0 0 1 14.336 15.36 14.336 14.336 0 0 1-5.12 10.24 14.336 14.336 0 0 1-10.24 4.096h-19.456l-2.048 7.168a71.68 71.68 0 0 1-16.384 25.6l-5.12 5.12 9.216 16.384a15.36 15.36 0 1 1-26.624 14.336L640 664.576h-7.168a72.704 72.704 0 0 1-31.744-1.024l-7.168-2.048-10.24 16.384a15.36 15.36 0 0 1-25.6-15.36l10.24-17.408-5.12-6.144-8.192-12.288a73.728 73.728 0 0 1-6.144-14.336l-2.048-7.168h-17.408a15.36 15.36 0 0 1-14.336-15.36 14.336 14.336 0 0 1 4.096-9.216z"/></svg>