<svg class="icon" viewBox="0 0 1024 1024" xmlns="http://www.w3.org/2000/svg" width="200" height="200"><defs><style/></defs><path d="M502.575 73.84c-129.86 0-235.129 105.271-235.129 235.13S372.715 544.1 502.576 544.1c129.854 0 235.123-105.272 235.123-235.13S632.43 73.84 502.575 73.84zm1.645 423.232c-103.883 0-188.101-84.22-188.101-188.102 0-103.888 84.218-188.102 188.1-188.102 103.885 0 188.103 84.214 188.103 188.102 0 103.883-84.217 188.102-188.102 188.102zm0 0"/><path d="M112.575 947.116c.562-220.275 179.294-398.677 399.7-398.677 220.408 0 399.142 178.402 399.703 398.677h48.484c-.56-247.053-201-447.16-448.188-447.16-247.183 0-447.623 200.107-448.183 447.16h48.484zm0 0"/></svg>