<svg class="icon" viewBox="0 0 1024 1024" xmlns="http://www.w3.org/2000/svg" width="200" height="200"><defs><style/></defs><path d="M512.282 957.937c-247.53 0-448.19-200.66-448.19-448.185 0-191.063 119.757-353.748 288.116-418.226v69.339C220.058 221.6 128.119 354.772 128.119 509.752c0 212.15 172.012 384.162 384.163 384.162 212.153 0 384.159-172.01 384.159-384.162 0-154.98-91.944-288.15-224.094-348.918V91.526c168.36 64.478 288.116 227.168 288.116 418.226.005 247.524-200.655 448.185-448.18 448.185zM480.268 61.561h64.022v449.34h-64.022V61.561zm0 0"/></svg>