<svg class="icon" viewBox="0 0 1024 1024" xmlns="http://www.w3.org/2000/svg" width="200" height="200"><defs><style/></defs><path d="M750.592 312.32H152.576a99.328 99.328 0 0 0-99.328 99.328v219.136a99.328 99.328 0 0 0 99.328 99.328h98.304l59.392 115.712 64.512-115.712h375.808a99.328 99.328 0 0 0 99.328-99.328V412.672a99.328 99.328 0 0 0-99.328-100.352zM819.2 629.76a68.608 68.608 0 0 1-68.608 68.608h-394.24l-45.056 80.896-40.96-80.896h-117.76a68.608 68.608 0 0 1-68.608-68.608V412.672a68.608 68.608 0 0 1 68.608-68.608h598.016a68.608 68.608 0 0 1 68.608 68.608z"/><path d="M871.424 195.584H273.408a99.328 99.328 0 0 0-99.328 99.328v15.36h30.72v-15.36a68.608 68.608 0 0 1 68.608-68.608h598.016a68.608 68.608 0 0 1 68.608 68.608v218.112a68.608 68.608 0 0 1-68.608 68.608h-17.408v30.72h17.408a99.328 99.328 0 0 0 99.328-99.328V294.912a99.328 99.328 0 0 0-99.328-99.328zm-617.472 266.24a59.392 59.392 0 1 0 59.392 59.392 59.392 59.392 0 0 0-59.392-59.392zm0 88.064a28.672 28.672 0 1 1 28.672-28.672 28.672 28.672 0 0 1-28.672 28.672zm197.632-88.064a59.392 59.392 0 1 0 59.392 59.392 59.392 59.392 0 0 0-59.392-59.392zm0 88.064a28.672 28.672 0 1 1 28.672-28.672 28.672 28.672 0 0 1-28.672 28.672z"/><path d="M649.216 461.824a59.392 59.392 0 1 0 59.392 59.392 59.392 59.392 0 0 0-59.392-59.392zm0 88.064a28.672 28.672 0 1 1 28.672-28.672 28.672 28.672 0 0 1-28.672 28.672z"/></svg>