<svg class="icon" viewBox="0 0 1024 1024" xmlns="http://www.w3.org/2000/svg" width="200" height="200"><defs><style/></defs><path d="M552.96 101.376V430.08h328.704V101.376zM850.944 399.36H583.68V132.096h267.264zM142.336 922.624H471.04V593.92H142.336zm30.72-297.984H440.32v267.264H173.056zm301.056-374.784a220.16 220.16 0 0 0-220.16 220.16H179.2l90.112 111.616 90.112-110.592h-74.752a189.44 189.44 0 0 1 189.44-190.464 15.36 15.36 0 0 0 0-30.72zM757.76 453.632l-90.112 111.616H742.4a189.44 189.44 0 0 1-189.44 191.488 15.36 15.36 0 0 0 0 30.72 220.16 220.16 0 0 0 220.16-220.16h74.752z"/></svg>