<svg class="icon" viewBox="0 0 1024 1024" xmlns="http://www.w3.org/2000/svg" width="200" height="200"><defs><style/></defs><path d="M502.179 38.633c-131.072 0-237.522 104.168-237.522 232.727S371.06 504.087 502.18 504.087c131.165 0 237.568-104.168 237.568-232.727S633.437 38.633 502.179 38.633zm0 0c-131.072 0-237.522 104.168-237.522 232.727S371.06 504.087 502.18 504.087c131.165 0 237.568-104.168 237.568-232.727S633.437 38.633 502.179 38.633zm-88.995 543.046c-169.472 0-306.874 134.609-306.874 300.59v19.316c0 67.91 137.402 67.957 306.874 67.957h197.958c169.425 0 306.78-2.514 306.78-67.957V882.27c0-165.981-137.355-300.59-306.78-300.59H413.184zm0 0"/></svg>