<svg class="icon" viewBox="0 0 1024 1024" xmlns="http://www.w3.org/2000/svg" width="200" height="200"><defs><style/></defs><path d="M800 384H224c-35.3 0-64 28.6-64 64v352c0 70.7 57.3 128 128 128h448c70.7 0 128-57.3 128-128V448c0-35.4-28.7-64-64-64zM544 720c0 17.7-14.3 32-32 32s-32-14.3-32-32V592c0-17.7 14.3-32 32-32 8.8 0 16.8 3.6 22.6 9.4 5.8 5.8 9.4 13.8 9.4 22.6v128z"/><path d="M512 160c42.7 0 82.9 16.6 113.1 46.9C655.4 237.1 672 277.3 672 320v64H352v-64c0-42.7 16.6-82.9 46.9-113.1S469.3 160 512 160m0-64c-123.7 0-224 100.3-224 224v128h448V320c0-123.7-100.3-224-224-224z"/></svg>