<svg class="icon" viewBox="0 0 1024 1024" xmlns="http://www.w3.org/2000/svg" width="200" height="200"><defs><style/></defs><path d="M306.688 967.168c0-23.04 18.432-41.472 41.472-41.472h332.8c23.04 0 41.472 18.432 41.472 41.472S704 1004.032 680.96 1008.64h-332.8c-23.04 0-41.472-18.432-41.472-41.472zM958.464 777.728l-78.336-111.104c-13.824-18.432-41.472-23.04-59.904-9.216-18.432 18.432-23.04 41.472-9.216 59.904l32.256 41.472h-670.72l92.672-124.928v-207.36c9.216-138.752 129.536-235.52 263.168-230.912 166.4 4.608 230.912 120.32 230.912 221.696v92.672c0 23.04 18.432 41.472 41.472 41.472s41.472-18.432 41.472-41.472V417.28c0-64.512-18.432-129.536-59.904-180.224-27.648-41.472-64.512-73.728-111.104-92.672-4.096-69.12-59.392-129.536-133.12-134.144-78.848-4.608-152.576 55.808-157.184 134.144-51.2 23.04-97.28 60.416-134.144 106.496-36.864 50.688-59.904 110.592-64.512 175.616v194.048L66.56 777.728c-4.608 4.608-9.216 13.824-9.216 23.04 0 23.04 18.432 41.472 41.472 41.472h832c4.608 0 13.824 0 18.432-4.608 18.432-13.824 23.04-41.472 9.216-59.904zM523.776 89.088c27.648-4.608 55.296 9.216 69.12 32.256-41.472-9.216-82.944-9.216-124.928 0 9.728-23.04 32.768-32.256 55.808-32.256z"/></svg>