<svg class="icon" viewBox="0 0 1024 1024" xmlns="http://www.w3.org/2000/svg" width="200" height="200"><defs><style/></defs><path d="M540.672 412.459H250.88c-16.896-2.56-28.672-18.432-26.112-35.84 2.048-13.312 12.8-24.064 26.112-26.112h289.792c16.896 2.56 28.672 18.432 26.112 35.84-2.56 13.824-12.8 24.064-26.112 26.112zm210.432 163.328H250.88c-17.408-3.072-29.184-19.968-25.6-37.376v-.512c2.56-12.8 12.8-22.528 25.6-25.088h500.224c17.408 3.072 29.184 19.968 25.6 36.864-2.048 13.312-12.288 23.552-25.6 26.112zm0 162.816H250.88c-17.408-3.072-29.184-19.968-25.6-36.864 2.56-13.312 12.8-23.552 25.6-25.6h500.224c17.408 3.072 29.184 19.968 25.6 37.376v.512c-2.56 12.288-12.8 22.016-25.6 24.576z"/><path d="M738.08 36.267h-523.2c-65.76-.48-120 52.32-120.48 118.08v708c.48 65.76 54.72 118.56 120.48 118.08H816.8c65.76.48 119.52-52.32 120.48-118.08l6.72-618.24-205.92-207.84zm139.2 826.08c-.48 33.12-27.36 59.52-60 59.04h-602.4c-33.12.48-60-25.92-60-59.04v-708c.48-33.12 27.36-59.52 60-59.04h421.44v177.12c.48 33.12 27.36 59.52 60 59.04H876.8v530.88zm-151.2-589.92c-16.32 0-29.28-12.96-29.28-28.8V95.307l180.48 177.12h-151.2z"/></svg>