<svg class="icon" viewBox="0 0 1024 1024" xmlns="http://www.w3.org/2000/svg" width="200" height="200"><defs><style/></defs><path d="M1010.688 436.01l-27.136-101.887c-7.168-30.72-32.256-54.272-63.488-59.392l-76.288-12.288-32.256-42.496 5.632-76.288c2.56-31.744-14.336-61.952-42.496-76.8l-94.72-49.152c-30.72-15.872-68.096-9.216-91.648 15.872l-52.224 52.736h-51.712l-52.224-51.712c-23.552-24.576-60.416-30.72-90.624-15.36l-91.648 49.152c-27.648 14.848-44.032 44.544-41.984 76.288l5.632 76.8-37.888 46.592-68.096 6.656c-34.304 3.584-61.952 29.184-69.12 62.976L16.896 443.69c-6.656 32.256 7.168 65.536 34.816 82.944l60.928 39.424 13.824 52.736-41.472 63.488c-18.944 29.696-16.896 68.096 6.144 95.232l69.632 82.944c20.48 24.576 54.272 33.792 84.992 23.04l69.632-24.064 47.616 23.552 26.112 71.68c10.752 31.232 40.448 52.736 73.728 52.736h104.448c33.792 0 63.488-20.992 74.752-52.736l23.04-76.288 52.224-23.04 72.192 23.04c32.768 12.288 69.632 1.024 90.112-27.648l59.904-86.528c17.92-26.624 17.92-61.44 0-88.576l-36.864-59.904 12.8-52.736 61.952-39.936c29.184-17.92 42.496-53.248 33.28-87.04zm-164.352 76.8l-28.16 118.273 54.784 89.088-59.904 86.528-98.304-33.28-113.664 49.152-33.28 105.984H462.336l-36.352-102.4-104.448-53.248-99.84 35.328-71.68-82.432 59.904-93.184-28.672-116.736-86.528-55.808 22.016-105.984 99.84-10.24 78.336-96.256-8.192-110.08 91.648-49.152 73.728 79.36h119.808l74.752-79.36 94.72 49.152-8.192 105.984 69.632 91.648 104.448 16.896 27.648 103.424-88.576 57.344z"/><path d="M514.56 304.427c-112.64-1.536-205.312 88.576-206.848 201.216-1.536 112.64 88.576 205.312 201.216 206.848 112.64 1.536 205.312-88.576 206.848-201.216v-3.072c1.024-111.616-89.088-203.264-201.216-203.776zm105.472 311.296c-27.648 28.16-65.536 44.544-105.472 44.544-83.456 1.024-152.064-65.536-153.6-148.992-1.024-83.456 65.536-152.064 148.992-153.6 83.456-1.024 152.064 65.536 153.6 148.992v2.048c0 39.936-15.36 78.336-43.52 107.008z"/></svg>