<svg class="icon" viewBox="0 0 1024 1024" xmlns="http://www.w3.org/2000/svg" width="200" height="200"><defs><style/></defs><path d="M700.901 21.333H26.667v670.343h74.915V95.762h599.32V21.333z"/><path d="M251.412 244.619h674.234V468.39h74.915v-298.2H176.497v819.2h299.66v-74.43H251.411V244.62z"/><path d="M970.887 676.596h-44.754c-5.838-15.567-13.621-30.647-22.377-44.754l30.16-29.674c7.297-11.19 7.297-25.783 0-37.458l-37.457-37.457c-11.189-7.297-26.27-7.297-37.458 0l-30.16 29.674c-15.567-5.838-30.647-13.135-44.755-22.378v-44.754c-.973-16.053-14.107-28.701-30.16-29.674h-52.538c-16.053.973-28.701 13.62-30.16 29.674v44.754c-7.298 7.297-30.161 15.08-37.458 22.378l-37.458-37.458c-11.188-7.297-26.269-7.297-37.457 0l-37.458 37.458c-7.297 11.188-7.297 25.782 0 37.457l30.16 29.674c-.486 18.486-5.837 36.485-15.08 52.052h-44.754c-16.053.973-28.701 13.62-30.16 29.674v52.051c.973 16.053 14.107 28.701 30.16 29.674h44.755c5.837 15.567 13.62 30.647 22.377 44.754l-30.16 29.675c-7.298 11.188-7.298 25.782 0 37.457l37.457 37.458c11.188 7.296 26.269 7.296 37.457 0l30.16-29.675c15.568 5.838 30.648 13.621 44.755 22.378v44.754c.973 16.053 14.108 28.701 30.16 29.674h52.538c16.054-.973 28.702-13.62 30.161-29.674v-44.754c15.567-5.838 30.647-13.135 44.754-22.378l30.161 29.675c11.189 7.296 26.269 7.296 37.458 0l37.457-37.458c7.297-11.189 7.297-25.782 0-37.457l-30.16-29.675c5.837-15.566 13.62-30.647 22.377-44.754h44.754c16.053-.973 28.701-13.62 30.16-29.674v-52.051c-6.81-15.08-20.917-26.27-37.457-29.188zM734.467 847.83h-3.405c-65.672-.486-118.697-53.997-118.21-119.67.486-65.671 53.997-118.696 119.67-118.21 65.672.487 118.21 53.512 118.21 119.184.972 64.7-51.08 118.21-116.265 118.696z"/></svg>