<svg class="icon" viewBox="0 0 1024 1024" xmlns="http://www.w3.org/2000/svg" width="200" height="200"><defs><style/></defs><path d="M854.72 26.667H169.28C93.44 26.667 32 88.107 32 163.947v685.92c0 75.36 61.44 136.8 137.28 136.8h685.44c75.84 0 137.28-61.44 137.28-137.28v-685.44c0-75.84-61.44-137.28-137.28-137.28zm68.64 822.72c0 37.92-30.72 68.64-68.16 68.64H169.28c-37.92 0-68.64-30.72-68.64-68.64v-685.44c0-37.92 30.72-68.64 68.64-68.64h685.44c37.92 0 68.64 30.72 68.64 68.64v685.44z"/><path d="M832 323.883H539.648c-19.968 0-36.352 16.384-36.352 36.352 0 19.968 16.384 36.352 36.352 36.352H832c19.968 0 36.352-16.384 36.352-36.352.512-19.968-15.872-36.352-36.352-36.352zm0 292.352H539.648c-19.968-.512-37.376 14.848-37.888 35.328-.512 19.968 14.848 37.376 35.328 37.888H832c19.968.512 37.376-14.848 37.888-35.328.512-19.968-14.848-37.376-35.328-37.888H832zm-512-91.136c-70.656 0-128 57.344-128 128s57.344 128 128 128 128-57.344 128-128-57.344-128-128-128zm38.912 166.912c-21.504 21.504-56.32 21.504-77.824 0-21.504-21.504-21.504-56.32 0-77.824 21.504-21.504 56.32-21.504 77.824 0 10.24 10.24 15.872 24.064 15.872 38.912.512 14.336-5.632 28.672-15.872 38.912zm45.056-430.592l-120.32 120.32-47.104-47.104c-13.824-14.848-36.864-15.872-51.712-2.048-14.848 13.824-15.872 36.864-2.048 51.712l2.048 2.048 73.216 73.216a36.465 36.465 0 0 0 51.712 0L455.68 313.13c13.824-14.336 13.312-37.888-1.024-51.712a37.16 37.16 0 0 0-50.688 0z"/></svg>