<svg class="icon" viewBox="0 0 1024 1024" xmlns="http://www.w3.org/2000/svg" width="200" height="200"><defs><style/></defs><path d="M767.488 893.952c-9.728 1.024-18.944-2.56-25.088-10.24-3.072-6.656-4.608-13.824-4.096-20.992 0-2.56 0-5.12-.512-7.68-2.048-9.216.512-18.432 6.144-25.6 7.168-6.144 15.872-8.704 25.088-7.68h3.584c14.336.512 30.72.512 50.176.512h59.392c15.36 0 28.672 0 40.448.512h1.536c14.336 0 17.408-3.584 17.408-18.944-.512-196.096-.512-394.752 0-590.848.512-4.608-.512-9.728-3.072-13.824-4.096-2.56-9.216-3.584-14.336-3.072h-.512c-30.72 0-63.488.512-107.008.512H712.192c-61.952 0-129.024 0-196.608 1.024h-1.536c-15.872 3.072-31.232-7.168-34.304-23.04-1.024-4.096-.512-8.704.512-12.8v-2.048c-1.536-9.728 1.024-19.968 7.168-28.16 7.68-6.144 17.408-9.216 27.136-8.192 59.392.512 123.392 1.024 206.336 1.024h206.848c23.04-2.048 46.08 5.12 64 19.968 15.36 16.896 23.04 39.424 21.504 62.464.512 70.144.512 141.312 0 209.92v388.608c2.56 24.576-5.12 49.152-20.992 68.608-19.456 15.872-44.544 23.04-69.12 20.48-15.36 0-30.72 0-45.568-.512-14.848-.512-30.208 0-45.568 0-24.064 0-43.52.512-61.44 1.536h-3.584l.512-1.536z"/><path d="M659.456 861.184c-3.072-58.88-20.992-116.224-51.712-166.912a341.504 341.504 0 0 0-131.072-117.76c-7.68-4.096-15.872-7.68-23.552-10.752-1.024-.512-1.536-.512-2.56-1.024 82.432-49.152 126.464-143.872 111.104-238.592-14.848-98.816-91.136-176.128-188.928-193.024-11.776-1.536-23.552-2.56-34.816-2.56-43.008 0-85.504 12.288-121.856 35.328-84.992 56.32-123.904 161.28-96.768 259.072a241.088 241.088 0 0 0 104.96 139.264c-5.12 2.048-9.216 4.096-13.312 6.144-115.712 50.688-192 163.84-194.56 290.304 0 1.024-.512 2.56-.512 3.584-3.072 7.168 0 15.872 7.168 18.944 9.728 3.072 19.968 4.096 30.208 4.096 9.728 0 19.968-1.024 29.696-2.56 6.656 0 12.288-4.096 14.336-10.24 1.024-4.608 1.024-8.704.512-13.312-.512-2.56-.512-4.608-.512-7.168 1.024-6.656 2.048-12.8 3.072-19.456.512-5.12 1.536-10.752 2.56-16.384C122.88 705.536 222.208 624.128 336.896 627.2h10.24c118.272 1.536 216.576 91.648 227.84 209.408-.512 13.824 2.56 27.648 8.704 39.936 9.216 8.192 22.016 11.776 34.304 9.728h15.36c7.68.512 15.36-1.536 20.992-6.656 4.096-4.608 6.144-11.776 5.12-18.432zm-322.56-347.648c-83.968-4.096-148.48-74.752-144.384-158.208 3.584-77.824 66.048-140.288 143.872-143.872h.512c81.92.512 147.968 67.072 147.456 148.992v1.024c.512 40.96-15.36 80.896-45.056 109.568-27.136 27.136-64 42.496-102.4 42.496z"/><path d="M873.984 376.32H609.28c-13.824 0-25.088-11.264-25.088-25.088v-29.696c0-13.824 11.264-25.088 25.088-25.088h264.704c13.824 0 25.088 11.264 25.088 25.088v29.696c-.512 13.824-11.264 25.088-25.088 25.088zm1.024 139.776H610.304c-13.824 0-25.088-11.264-25.088-25.088V460.8c0-13.824 11.264-25.088 25.088-25.088h264.704c13.824 0 25.088 11.264 25.088 25.088v29.696c0 14.336-11.264 25.6-25.088 25.6zm1.024 140.8H611.328c-13.824 0-25.088-11.264-25.088-25.088v-29.696c0-13.824 11.264-25.088 25.088-25.088h264.704c13.824 0 25.088 11.264 25.088 25.088v29.696c0 13.824-11.264 25.088-25.088 25.088z"/></svg>