<svg class="icon" viewBox="0 0 1024 1024" xmlns="http://www.w3.org/2000/svg" width="200" height="200"><defs><style/></defs><path d="M998.912 347.648c-.512-.512-.512-1.024-.512-1.536-.512-2.048-1.024-4.096-2.048-6.144l-83.968-208.384c-15.872-43.52-58.368-71.68-104.96-69.632h-588.8c-45.056-2.56-86.528 25.088-101.888 67.584l-90.112 212.48c-.512 1.536-1.024 3.072-1.536 5.12-29.696 90.624 9.728 189.952 94.208 235.008 82.432 41.472 182.784 21.504 243.2-48.64 68.608 82.432 191.488 93.184 273.92 24.576a278.317 278.317 0 0 0 24.576-24.576c68.608 83.456 192.512 95.744 275.968 26.624 45.568-37.376 71.68-93.184 71.68-152.064 0-20.992-3.072-40.96-9.728-60.416zM871.424 517.632c-18.432 9.728-38.912 14.336-59.904 13.824-43.52 0-83.968-22.528-106.496-59.392-2.56-5.632-5.632-10.24-9.728-14.848-18.432-18.944-48.64-19.456-67.584-.512l-1.024 1.024c-4.096 4.608-7.168 9.728-9.216 14.848-34.816 58.368-110.592 77.312-168.448 42.496-17.408-10.24-31.744-25.088-42.496-42.496-2.048-5.12-5.12-9.216-8.704-13.312-18.944-18.944-49.664-19.968-69.12-1.536-4.096 4.608-7.68 10.24-9.728 15.872-35.328 54.784-106.496 74.752-165.376 46.592-40.96-21.504-66.56-64-66.56-110.592 0-13.824 2.56-27.648 6.656-40.96.512-1.024.512-2.56 1.024-3.584l89.088-209.92c4.608-14.848 19.456-24.064 34.816-21.504h589.312c16.384-1.536 31.744 8.192 37.888 23.04l82.944 206.848c.512 1.536.512 3.072 1.024 4.096 19.968 56.832-4.608 120.832-58.368 150.016zm26.624 114.688c-19.968 0-35.84 15.872-35.84 35.84v195.072c0 11.264-9.216 19.968-19.968 19.968l-673.28.512c-10.752 0-19.968-8.704-19.968-19.456V672.768c0-19.968-15.872-35.84-35.84-35.84s-35.84 15.872-35.84 35.84v191.488c0 50.688 41.472 91.136 91.648 91.136l673.792-.512c50.688 0 91.648-40.96 91.648-91.648V668.16c0-19.968-16.384-35.84-36.352-35.84.512 0 .512 0 0 0z"/><path d="M792.064 362.496H219.136c-19.968 0-35.84-15.872-35.84-35.84s15.872-35.84 35.84-35.84h572.928c19.968 0 35.84 15.872 35.84 35.84 0 19.456-16.384 35.84-35.84 35.84z"/></svg>