<svg class="icon" viewBox="0 0 1024 1024" xmlns="http://www.w3.org/2000/svg" width="200" height="200"><defs><style/></defs><path d="M346.112 106.496l-8.192-18.432-19.456 8.192 8.192 18.432zm36.864-13.312l-6.144-19.456-19.456 6.144 7.168 19.456zm-73.728 30.72l-9.216-18.432-18.432 10.24 10.24 17.408zm-33.792 19.456l-11.264-17.408-17.408 11.264 12.288 16.384zm146.432-59.392l-4.096-20.48-20.48 5.12 5.12 19.456zM460.8 76.8l-2.048-20.48-20.48 3.072 3.072 20.48zM75.776 473.088l-20.48-2.048q-1.024 10.24-1.024 20.48h20.48q0-8.192 1.024-18.432zm43.008-152.576l-18.432-9.216-9.216 19.456 18.432 8.192zm-16.384 35.84l-19.456-7.168-7.168 19.456 19.456 6.144zm-12.288 38.912l-19.456-6.144-5.12 20.48 19.456 4.096zm-16.384 117.76h-20.48v20.48h20.48q1.024-10.24 0-20.48zm168.96-346.112L230.4 150.528l-16.384 13.312 13.312 15.36zM80.896 433.152L61.44 430.08l-3.072 20.48 20.48 3.072zM184.32 221.184l-15.36-13.312-13.312 16.384 16.384 13.312zm28.672-28.672l-14.336-15.36-15.36 14.336 14.336 14.336zm-53.248 59.392l-16.384-12.288-12.288 17.408 17.408 11.264zm-22.528 33.792l-17.408-10.24-10.24 18.432L128 304.128zm527.36-205.824l-19.456-6.144-6.144 19.456 19.456 6.144zm248.832 256l18.432-8.192-9.216-18.432-18.432 9.216zm-18.432-34.816l18.432-10.24-10.24-18.432-17.408 10.24zm-44.032-66.56l15.36-13.312-13.312-15.36-15.36 13.312zm23.552 31.744l17.408-11.264-12.288-17.408-16.384 12.288zm53.248 107.52l19.456-6.144-7.168-19.456-19.456 7.168zm10.24 37.888l19.456-5.12-5.12-20.48-19.456 5.12zm11.264 78.848h20.48q-1.024-10.24-1.024-20.48l-20.48 2.048q1.024 8.192 1.024 18.432zm-4.096-39.936l20.48-3.072-3.072-20.48-20.48 4.096zM702.464 95.232l-19.456-8.192-7.168 19.456 18.432 8.192zM624.64 67.584l-20.48-5.12-4.096 20.48 19.456 4.096zm-40.96-8.192L563.2 56.32l-2.048 20.48 19.456 3.072zm-41.984-5.12h-20.48v20.48h19.456zM75.776 552.96l-20.48 2.048 2.048 20.48 20.48-3.072q-1.024-10.24-2.048-19.456zm762.88-362.496l-15.36-14.336-14.336 15.36 15.36 13.312zM500.736 74.752v-20.48h-20.48v20.48zm274.432 62.464l-17.408-12.288-11.264 17.408 17.408 11.264zm-34.816-22.528l-18.432-10.24-9.216 18.432 17.408 9.216zm229.376 395.264h-20.48v21.504h20.48v-21.504zM791.552 149.504l-12.288 16.384 15.36 12.288 13.312-15.36zm33.792 668.672l14.336 14.336 14.336-15.36-15.36-13.312zm-94.208 72.704l10.24 17.408 17.408-11.264-11.264-16.384zm64.512-46.08l13.312 16.384 15.36-14.336-14.336-15.36zm-30.72 24.576l12.288 16.384 16.384-12.288-12.288-16.384zm-144.384 66.56l5.12 19.456 20.48-6.144L640 929.792zm-38.912 8.192l3.072 20.48 20.48-4.096-4.096-20.48zm76.8-19.456l7.168 19.456 19.456-7.168-8.192-19.456zm36.864-15.36l8.192 18.432 18.432-9.216-8.192-17.408zM851.968 788.48l15.36 13.312 13.312-17.408-16.384-12.288zm87.04-178.176l19.456 4.096 4.096-20.48-20.48-4.096zm7.168-38.912l20.48 3.072c1.024-7.168 2.048-13.312 2.048-20.48l-20.48-2.048q-1.024 10.24-2.048 19.456zm-18.432 77.824l19.456 6.144 6.144-20.48-19.456-5.12zM81.92 591.872l-20.48 4.096 4.096 20.48 19.456-5.12zM896 721.92l18.432 10.24 9.216-18.432-18.432-9.216zm17.408-35.84l18.432 8.192 8.192-19.456-18.432-7.168zm-37.888 70.656L891.904 768l11.264-17.408-17.408-10.24zm-675.84 90.112l15.36 14.336 13.312-15.36-15.36-13.312zm-38.912-73.728l-16.384 12.288 13.312 16.384 15.36-13.312zm9.216 44.032l14.336 15.36 14.336-14.336-13.312-14.336zm61.44 57.344l16.384 12.288 12.288-16.384-16.384-12.288zm-112.64-168.96l-18.432 9.216 9.216 18.432L128 722.944zm19.456 34.816l-17.408 10.24L132.096 768l17.408-11.264zM90.112 630.784l-19.456 5.12L76.8 655.36l19.456-6.144zm13.312 37.888l-19.456 7.168 8.192 19.456 18.432-8.192zm161.792 229.376l17.408 11.264 10.24-17.408-16.384-11.264zm73.728 38.912l19.456 7.168 7.168-19.456-18.432-7.168zm-37.888-17.408l18.432 9.216 8.192-18.432-16.384-9.216zm211.968 30.72h-10.24v20.48h20.48v-20.48zm-94.208 10.24l20.48 4.096 3.072-20.48-19.456-3.072zm41.984 7.168l20.48 2.048v-20.48l-19.456-2.048zm81.92-19.456v20.48l20.48-2.048-2.048-20.48zm-163.84 2.048l20.48 5.12 5.12-19.456-19.456-5.12zm132.096-495.616a62.464 62.464 0 1 0 62.464 62.464 62.464 62.464 0 0 0-62.464-62.464zm0 103.424a41.984 41.984 0 1 1 41.984-41.984 41.984 41.984 0 0 1-41.984 41.984z"/><path d="M791.552 749.568V619.52a47.104 47.104 0 0 0-47.104-47.104h-30.72a208.896 208.896 0 0 0-3.072-120.832h33.792a47.104 47.104 0 0 0 47.104-47.104V274.432a47.104 47.104 0 0 0-47.104-47.104H614.4a47.104 47.104 0 0 0-47.104 47.104v39.936a214.016 214.016 0 0 0-111.616-1.024v-38.912a47.104 47.104 0 0 0-46.08-47.104H278.528a47.104 47.104 0 0 0-47.104 47.104V404.48a47.104 47.104 0 0 0 47.104 47.104h31.744a208.896 208.896 0 0 0-3.072 120.832h-28.672a47.104 47.104 0 0 0-47.104 47.104v130.048a47.104 47.104 0 0 0 47.104 47.104H409.6a47.104 47.104 0 0 0 47.104-47.104v-28.672a208.896 208.896 0 0 0 111.616-1.024v29.696a47.104 47.104 0 0 0 46.08 47.104h131.072a47.104 47.104 0 0 0 46.08-47.104zM587.776 274.432a26.624 26.624 0 0 1 26.624-26.624h131.072a26.624 26.624 0 0 1 26.624 26.624V404.48a26.624 26.624 0 0 1-26.624 26.624H614.4a26.624 26.624 0 0 1-26.624-26.624zM252.928 404.48V274.432a26.624 26.624 0 0 1 26.624-26.624H409.6a26.624 26.624 0 0 1 26.624 26.624V404.48a26.624 26.624 0 0 1-26.624 26.624H278.528a26.624 26.624 0 0 1-25.6-26.624zm183.296 345.088a26.624 26.624 0 0 1-26.624 26.624H278.528a26.624 26.624 0 0 1-26.624-26.624V619.52a26.624 26.624 0 0 1 26.624-26.624H409.6a26.624 26.624 0 0 1 26.624 26.624zM567.296 619.52v78.848a192.512 192.512 0 0 1-111.616 1.024V619.52a47.104 47.104 0 0 0-46.08-47.104h-80.896a188.416 188.416 0 0 1 3.072-120.832H409.6a47.104 47.104 0 0 0 47.104-47.104v-70.656a192.512 192.512 0 0 1 111.616 1.024v69.632a47.104 47.104 0 0 0 46.08 47.104h74.752a188.416 188.416 0 0 1 3.072 120.832H614.4a47.104 47.104 0 0 0-47.104 47.104zm20.48 131.072V619.52a26.624 26.624 0 0 1 26.624-26.624h131.072a26.624 26.624 0 0 1 26.624 26.624v130.048a26.624 26.624 0 0 1-26.624 26.624H614.4a26.624 26.624 0 0 1-26.624-26.624z"/></svg>