<svg class="icon" viewBox="0 0 1024 1024" xmlns="http://www.w3.org/2000/svg" width="200" height="200"><defs><style/></defs><path d="M943.455 267.512H627.06v-28.76c0-31.743-25.816-57.528-57.527-57.528H80.543c-31.724 0-57.524 25.785-57.524 57.527v316.394c0 31.712 25.8 57.526 57.524 57.526h86.292v57.527c0 31.74 25.854 57.526 57.694 57.526 13.497 0 26.152-8.455 36.67-17.247l117.384-97.806h75.883v57.527c0 31.713 25.8 57.526 57.54 57.526H645.26l117.523 99.744c11.012 9.157 23.398 15.309 36.852 15.309 8.317 0 17.557-3.23 25.506-6.937 19.72-9.271 32.023-28.653 32.023-50.644v-57.471h86.29c31.712 0 57.525-25.813 57.525-57.526v-345.16c0-31.74-25.813-57.527-57.525-57.527zm-601.71 300.976l-117.384 97.806v-53.622c0-31.742-25.801-57.526-57.526-57.526H80.543V238.75h488.99v316.394h-190.95c-13.426 0-26.545 4.748-36.837 13.343zm601.71 101.71h-86.29c-31.742 0-57.529 25.786-57.529 57.526l.171 55.729-117.299-99.604a57.722 57.722 0 0 0-37.246-13.651H512.006V612.67h57.527c31.711 0 57.527-25.814 57.527-57.526V325.039h316.395v345.159z"/></svg>