<svg class="icon" viewBox="0 0 1024 1024" xmlns="http://www.w3.org/2000/svg" width="200" height="200"><defs><style/></defs><path d="M799.744 484.352A161.792 161.792 0 1 0 611.328 225.28a189.44 189.44 0 0 0-199.68-2.048 161.792 161.792 0 1 0-187.392 261.12 247.808 247.808 0 0 0-169.984 235.52 16.384 16.384 0 1 0 31.744 0 216.064 216.064 0 0 1 215.04-215.04 211.968 211.968 0 0 1 65.536 10.24 191.488 191.488 0 0 0 60.416 45.056 295.936 295.936 0 0 0-212.992 282.624 15.36 15.36 0 0 0 30.72 0 264.192 264.192 0 1 1 529.408 0 15.36 15.36 0 0 0 30.72 0 295.936 295.936 0 0 0-212.992-282.624 191.488 191.488 0 0 0 58.368-43.008 212.992 212.992 0 0 1 71.68-12.288 216.064 216.064 0 0 1 215.04 215.04 16.384 16.384 0 1 0 31.744 0 247.808 247.808 0 0 0-168.96-235.52zM302.08 472.064a129.024 129.024 0 1 1 82.944-228.352 190.464 190.464 0 0 0-48.128 223.232 126.976 126.976 0 0 1-34.816 5.12zm207.872 75.776A160.768 160.768 0 1 1 670.72 387.072 160.768 160.768 0 0 1 509.952 547.84zm174.08-81.92a190.464 190.464 0 0 0-47.104-220.16 129.024 129.024 0 1 1 47.104 220.16z"/></svg>